<svg width="154" height="100" viewBox="0 0 154 100" fill="none" xmlns="http://www.w3.org/2000/svg">
<rect width="154" height="100" rx="6" fill="#3E3E3E"/>
<path d="M7 61H147V87C147 90.3137 144.314 93 141 93H13C9.6863 93 7 90.3137 7 87V61Z" fill="black"/>
<path d="M7 55L115 55" stroke="black" stroke-linecap="round"/>
<path d="M144.891 12.8517C144.13 12.8701 143.38 12.7464 142.621 12.7577C142.356 12.7618 142.063 12.773 141.777 12.818C141.924 13.1206 141.777 13.5755 141.338 13.5755C141.258 13.5755 141.186 13.5602 141.125 13.5326C141.191 13.9384 141.146 14.3811 140.947 14.8646C140.788 15.249 140.253 15.4044 140.013 14.9863C139.648 14.3525 139.403 13.5776 139.744 12.9161C139.676 12.8364 139.601 12.7567 139.515 12.678C138.858 12.0728 138.033 11.6955 137.24 11.3091C136.506 10.9523 135.821 10.5434 135.022 10.342C134.418 10.1897 133.796 10.1427 133.175 10.113C133.094 10.203 132.971 10.2572 132.807 10.2459C131.712 10.1693 130.61 10.2224 129.655 10.8194C128.726 11.4001 128.021 12.3191 127.317 13.14C127.08 13.4171 126.524 13.2852 126.462 12.9141C126.074 10.5772 125.277 8.33323 124.869 6.00037H124.789C124.754 6.15882 124.643 6.29888 124.438 6.35306C123.27 6.66077 122.076 6.38986 120.906 6.60965C119.815 6.81513 118.733 7.32116 117.772 7.86195C117.082 8.25145 116.358 8.58062 115.68 8.99363C115.504 9.10097 115.324 9.21546 115.151 9.34018C115.159 9.35654 115.166 9.37392 115.172 9.3913C115.448 10.2101 114.996 10.9677 114.607 11.719C114.777 11.8223 114.886 12.0145 114.808 12.2639C114.495 13.2658 114.034 14.2472 113.847 15.2756C113.827 15.6467 113.811 16.0167 113.795 16.3858C113.87 16.5534 113.83 16.7129 113.729 16.8315C113.538 17.2241 112.92 17.1699 112.786 16.7119C112.62 16.4972 112.421 16.3009 112.225 16.1169C111.982 15.889 111.696 15.7469 111.445 15.5506C111.403 15.5884 111.35 15.6283 111.315 15.661C111.184 15.7867 111.067 15.9299 110.951 16.0689C110.745 16.3153 110.526 16.5565 110.332 16.8111C109.707 17.635 109.233 18.6522 108.778 19.5764C108.694 19.745 108.615 19.9158 108.537 20.0875C108.82 20.1734 109.056 20.4944 108.88 20.8389C108.743 21.1067 108.539 21.3439 108.335 21.58C108.346 21.6424 108.347 21.7109 108.334 21.7835C108.15 22.7454 108 23.7084 107.913 24.6786C108.071 24.6745 108.231 24.7461 108.334 24.927C109.338 26.6853 109.2 28.5347 109.124 30.4791C109.11 30.8369 109.105 31.1957 109.108 31.5525C109.279 31.6199 109.423 31.7692 109.444 31.9992C109.67 34.3689 109.789 36.805 110.607 39.0642C110.798 39.5887 111.064 40.0732 111.278 40.5864C111.488 41.0873 111.643 41.6067 111.802 42.125C111.879 42.3764 111.958 42.6259 112.045 42.8692C112.185 42.8815 112.322 42.953 112.418 43.1074C113.12 44.237 114.198 45.2 115.161 46.1088C116.107 47.0023 117.261 47.7332 118.523 48.0869C118.714 48.1401 118.823 48.2679 118.863 48.4141C118.869 48.4171 118.874 48.4202 118.879 48.4243C119.234 48.6829 119.553 48.8792 119.988 48.9733C120.481 49.0796 120.985 49.1256 121.484 49.1839C122.396 49.2902 123.288 49.558 124.205 49.6061C125.168 49.6572 126.124 49.8432 127.084 49.6674C127.962 49.5069 128.802 49.1828 129.654 48.917C129.726 48.7698 129.871 48.6656 130.09 48.6788C130.703 48.7177 131.272 48.5071 131.836 48.2914C132.45 48.0573 133.062 47.8201 133.662 47.5543C134.835 47.035 135.961 46.4533 136.911 45.5834C137.874 44.7001 138.922 43.9334 139.797 42.9571C140.105 42.6136 140.402 42.2834 140.651 41.9001C140.55 41.7917 140.505 41.6353 140.574 41.4462C140.934 40.4494 141.424 39.5059 141.744 38.4938C141.799 38.321 141.914 38.2168 142.048 38.1687C142.128 37.5267 142.191 36.8827 142.286 36.257C142.541 34.5784 143.025 32.9438 143.258 31.2591C143.373 30.431 143.409 29.5978 143.585 28.779C143.752 28.0102 143.994 27.2609 144.228 26.5105C144.679 25.064 145.072 23.5735 144.931 22.0442C144.866 21.35 144.648 20.708 144.343 20.1039C143.883 19.6009 143.416 19.1081 143.292 18.4007C143.286 18.367 143.284 18.3343 143.283 18.3026C143.155 18.1973 143.098 18.045 143.097 17.8937C142.699 17.91 142.333 17.3866 142.696 17.0186C143.884 15.8123 145.4 14.9945 146.66 13.8791C146.542 13.6614 146.567 13.3823 146.857 13.2453C146.897 13.2259 146.936 13.2085 146.976 13.1911C146.312 12.8599 145.676 12.8313 144.894 12.8497L144.891 12.8517Z" fill="#4C4C4C"/>
<path d="M146.655 12.3168C146.192 11.6196 145.698 11.6472 145.081 12.0889C144.773 12.3097 144.424 12.5039 144.064 12.6123C143.789 12.6951 143.42 12.7237 143.177 12.6041C142.113 12.0817 141.847 12.1461 141.152 13.0938C140.892 13.4485 140.506 13.7123 140.009 14.1754C139.926 13.5947 139.954 13.2962 139.838 13.0744C139.479 12.3935 139.223 11.5062 138.646 11.1167C135.521 9.00974 132.231 9.07313 128.931 10.7405C128.534 10.9408 128.248 11.3528 127.9 11.6564C127.57 11.9458 127.227 12.2208 126.77 12.601C126.633 12.1195 126.525 11.8425 126.477 11.5563C126.205 9.939 125.934 8.32072 125.692 6.69937C125.62 6.2097 125.44 5.99399 124.91 6.00013C121.854 6.03386 118.943 6.59714 116.245 8.12546C115.29 8.66626 114.687 9.33483 114.612 10.4665C114.57 11.0891 114.402 11.7035 114.284 12.3209C114.018 13.7031 113.748 15.0852 113.428 16.7362C112.727 16.0502 112.204 15.5401 111.716 15.0627C108.65 18.2369 107.332 21.9642 108.017 26.2772C108.642 30.2161 109.362 34.1407 110.135 38.0529C110.595 40.3776 111.441 42.5193 113.048 44.3359L113.542 43.6367C113.017 43.0141 112.56 42.0981 112.142 41.3519C111.726 40.6107 111.55 39.7091 111.385 38.8575C110.671 35.1558 109.87 31.4623 109.364 27.7299C109.07 25.5585 109.205 23.3156 109.297 21.1116C109.329 20.3551 109.813 19.617 110.09 18.8697C110.231 18.8912 110.373 18.9137 110.514 18.9351C110.772 19.8583 111.031 20.7824 111.288 21.7055C111.373 21.6974 111.458 21.6882 111.543 21.68C111.491 20.8662 111.419 20.0535 111.394 19.2388C111.368 18.425 111.387 17.6092 111.387 16.5859C113.62 18.1459 114.113 20.2846 114.43 22.5162C114.512 22.4999 114.593 22.4835 114.675 22.4661C114.715 22.1952 114.831 21.91 114.783 21.6565C114.13 18.1817 114.834 14.7979 115.47 11.4142C115.604 10.7047 115.686 9.75295 116.158 9.39003C117.147 8.63047 118.38 8.18987 119.687 7.52947C119.781 9.96252 119.865 12.1236 119.949 14.2837C120.036 14.2899 120.123 14.295 120.21 14.3011C120.249 14.0353 120.31 13.7716 120.323 13.5047C120.403 11.8936 120.47 10.2815 120.544 8.66932C120.551 8.50576 120.527 8.31766 120.598 8.18476C120.734 7.93225 120.928 7.71042 121.098 7.47529C121.232 7.71144 121.471 7.94248 121.483 8.18476C121.529 9.13957 121.5 10.0985 121.505 11.0553C121.53 14.8859 121.625 18.7102 122.35 22.4886C122.375 22.6184 122.42 22.7442 122.635 22.8853C122.653 22.6512 122.676 22.4171 122.69 22.1829C122.706 21.9202 122.716 21.6575 122.739 21.1699C124.041 22.3383 124.083 23.8472 124.535 25.1609C124.605 25.1578 124.675 25.1558 124.745 25.1527C124.745 24.7019 124.866 24.2061 124.721 23.8074C124.342 22.7646 123.932 21.7147 123.376 20.7599C122.709 19.6139 122.345 18.4506 122.327 17.1165C122.285 14.1089 122.142 11.1034 122.072 8.09582C122.065 7.79629 122.236 7.26572 122.406 7.22994C123.028 7.09806 123.686 7.11647 124.329 7.12362C124.387 7.12362 124.458 7.45178 124.496 7.63374C125.018 10.123 125.533 12.6133 126.051 15.1026C126.105 15.3643 126.173 15.6229 126.253 15.9593C127.052 15.6168 127.384 14.9595 127.607 14.2735C128.412 11.8016 130.301 10.9695 132.951 10.6648C133.051 10.6536 133.157 10.6986 133.197 10.7067C132.767 14.434 132.34 18.1255 131.914 21.817C132.036 21.8435 132.157 21.8701 132.28 21.8967C132.412 21.4561 132.584 21.0227 132.668 20.5728C133.236 17.5387 133.793 14.5025 134.332 11.4632C134.433 10.8908 134.652 10.6566 135.264 10.7936C136.297 11.0237 137.225 11.4285 138.088 12.1645C137.148 13.3524 136.243 14.4974 135.339 15.6413C135.394 15.7057 135.45 15.7701 135.505 15.8345C136.157 15.6894 136.57 15.1762 136.995 14.6794C137.416 14.1856 137.837 13.6928 138.258 13.1991C138.358 13.2001 138.458 13.2021 138.558 13.2032C139.255 15.4706 139.952 17.7391 140.688 20.1312C141.166 19.8634 141.551 19.6303 141.952 19.4269C142.549 19.1243 142.886 19.3032 142.787 19.9656C142.705 20.5084 142.419 21.0308 142.172 21.5358C141.909 22.0725 141.549 22.5622 141.307 23.1061C141.202 23.3392 141.289 23.6571 141.436 23.9556C142.123 22.8577 142.81 21.7607 143.482 20.6843C144.036 21.2435 144.147 21.8139 143.629 22.4917C142.759 23.6336 142.271 24.9145 142.062 26.315C142.017 26.6187 142.056 26.9345 142.144 27.2678C142.742 25.946 143.122 24.5281 144.366 23.5089C144.366 23.7706 144.432 24.0527 144.357 24.2909C142.956 28.7307 142.005 33.2686 141.176 37.8485C140.712 40.4124 139.69 42.5479 137.968 44.1141L138.694 44.5557C138.967 44.3554 139.17 44.1437 139.351 43.9362C140.674 42.4232 141.568 40.6853 142.024 38.7369C142.323 37.4621 142.487 36.1556 142.795 34.8828C143.525 31.8589 144.276 28.8401 145.073 25.8346C145.57 23.9607 145.529 22.1523 144.673 20.4011C144.254 19.5434 143.8 18.698 143.298 17.8873C143.024 17.4446 142.963 17.14 143.401 16.7791C144.433 15.9296 145.449 15.0617 146.454 14.1815C147.142 13.5794 147.154 13.0795 146.651 12.3209L146.655 12.3168ZM145.304 13.9413C144.138 15.0014 142.95 16.0359 141.768 17.0787C141.645 17.187 141.531 17.3353 141.386 17.3782C141.153 17.4487 140.899 17.4477 140.653 17.4774C140.665 17.2228 140.618 16.9488 140.697 16.7178C140.957 15.9593 141.249 15.2109 141.558 14.4708C141.685 14.1651 141.884 13.8901 142.05 13.6008C142.263 13.8196 142.476 14.0384 142.687 14.2592C142.742 14.3175 142.787 14.3839 142.908 14.5352C143.859 13.9321 144.744 13.3718 145.629 12.8106C145.721 12.9159 145.813 13.0202 145.904 13.1255C145.707 13.4005 145.549 13.7194 145.304 13.9413Z" fill="#272727"/>
<path d="M113.514 43.6019L112.846 44.0701C112.846 44.0701 121.701 57.1432 138.815 44.4678L138.317 43.8156C138.317 43.8156 123.976 56.173 113.514 43.6019Z" fill="#272727"/>
<path d="M131.291 33.2349C131.293 30.8867 133.56 28.6173 135.896 28.6244C138.25 28.6326 140.319 30.6352 140.336 32.9231C140.353 35.4134 138.221 37.5766 135.748 37.5796C133.314 37.5817 131.29 35.6087 131.291 33.2349ZM135.87 32.2024C135.876 31.4275 135.268 30.7477 134.571 30.7497C133.822 30.7518 133.102 31.45 133.108 32.1687C133.114 32.8751 133.799 33.5242 134.53 33.5171C135.262 33.5099 135.865 32.919 135.871 32.2024H135.87ZM136.424 34.2838C136.118 34.754 135.769 35.0566 135.818 35.2703C135.884 35.5596 136.253 35.7794 136.491 36.0299C136.731 35.7794 137.142 35.5422 137.163 35.2744C137.184 35.026 136.789 34.7438 136.424 34.2838Z" fill="#272727"/>
<path d="M121.929 33.6836C121.93 35.8417 119.667 37.9128 117.301 37.9169C114.955 37.921 113.025 35.9735 113.036 33.6131C113.049 31.2127 115.112 29.1334 117.485 29.1273C119.912 29.1211 121.926 31.1882 121.928 33.6836H121.929ZM117.46 32.5182C117.469 31.7075 116.982 31.1207 116.278 31.0942C115.552 31.0666 114.786 31.8128 114.767 32.5673C114.75 33.2318 115.329 33.749 116.087 33.7449C116.899 33.7409 117.451 33.2471 117.46 32.5182ZM119.178 36.0114C119.184 35.902 119.189 35.7926 119.196 35.6832C118.92 35.489 118.629 35.1261 118.372 35.1475C118.093 35.171 117.844 35.5534 117.581 35.7793C117.842 36.0103 118.075 36.3661 118.373 36.4315C118.599 36.4816 118.907 36.1647 119.178 36.0114Z" fill="#272727"/>
</svg>
