<svg width="154" height="100" viewBox="0 0 154 100" fill="none" xmlns="http://www.w3.org/2000/svg">
<rect width="154" height="100" rx="6" fill="#4266B0"/>
<path d="M7 61H147V87C147 90.3137 144.314 93 141 93H13C9.6863 93 7 90.3137 7 87V61Z" fill="#FAFAFA"/>
<path d="M7 55L115 55" stroke="#244079" stroke-linecap="round"/>
<path d="M144.888 12.8517C144.128 12.8701 143.377 12.7464 142.619 12.7576C142.353 12.7617 142.06 12.773 141.774 12.8179C141.921 13.1205 141.774 13.5755 141.336 13.5755C141.255 13.5755 141.183 13.5601 141.122 13.5325C141.188 13.9384 141.143 14.381 140.944 14.8646C140.786 15.2489 140.25 15.4043 140.01 14.9862C139.645 14.3524 139.4 13.5775 139.741 12.9161C139.673 12.8363 139.598 12.7566 139.512 12.6779C138.856 12.0727 138.031 11.6955 137.237 11.309C136.503 10.9523 135.818 10.5434 135.019 10.342C134.415 10.1896 133.793 10.1426 133.173 10.113C133.091 10.2029 132.968 10.2571 132.805 10.2459C131.709 10.1692 130.607 10.2224 129.652 10.8194C128.724 11.4 128.018 12.3191 127.314 13.14C127.077 13.417 126.522 13.2851 126.459 12.914C126.071 10.5771 125.274 8.33317 124.867 6.00031H124.786C124.751 6.15876 124.641 6.29881 124.435 6.353C123.268 6.6607 122.074 6.3898 120.903 6.60959C119.812 6.81507 118.73 7.3211 117.769 7.86189C117.079 8.25138 116.355 8.58056 115.677 8.99356C115.501 9.1009 115.321 9.2154 115.149 9.34012C115.156 9.35648 115.163 9.37386 115.169 9.39124C115.445 10.2101 114.993 10.9676 114.604 11.719C114.775 11.8222 114.883 12.0144 114.805 12.2639C114.492 13.2657 114.031 14.2471 113.844 15.2755C113.824 15.6466 113.809 16.0167 113.792 16.3857C113.867 16.5534 113.827 16.7129 113.727 16.8314C113.536 17.224 112.917 17.1698 112.783 16.7118C112.618 16.4972 112.418 16.3009 112.222 16.1169C111.98 15.8889 111.693 15.7468 111.442 15.5505C111.4 15.5883 111.347 15.6282 111.312 15.6609C111.181 15.7867 111.065 15.9298 110.948 16.0688C110.743 16.3152 110.523 16.5565 110.33 16.811C109.704 17.635 109.231 18.6521 108.775 19.5763C108.691 19.745 108.612 19.9157 108.535 20.0874C108.818 20.1733 109.053 20.4943 108.877 20.8388C108.74 21.1067 108.537 21.3438 108.332 21.58C108.343 21.6423 108.344 21.7108 108.331 21.7834C108.147 22.7454 107.997 23.7084 107.91 24.6785C108.068 24.6744 108.228 24.746 108.331 24.9269C109.335 26.6853 109.197 28.5346 109.121 30.479C109.107 30.8368 109.102 31.1956 109.105 31.5524C109.277 31.6199 109.42 31.7691 109.441 31.9991C109.667 34.3688 109.786 36.8049 110.605 39.0642C110.795 39.5886 111.062 40.0732 111.275 40.5864C111.485 41.0873 111.64 41.6066 111.8 42.1249C111.876 42.3764 111.955 42.6258 112.042 42.8691C112.182 42.8814 112.319 42.953 112.415 43.1073C113.117 44.2369 114.195 45.1999 115.158 46.1088C116.105 47.0022 117.259 47.7332 118.52 48.0869C118.711 48.14 118.82 48.2678 118.861 48.414C118.866 48.4171 118.871 48.4202 118.876 48.4242C119.232 48.6829 119.551 48.8792 119.985 48.9732C120.478 49.0795 120.982 49.1255 121.481 49.1838C122.394 49.2901 123.285 49.558 124.202 49.606C125.165 49.6571 126.121 49.8432 127.081 49.6673C127.959 49.5068 128.799 49.1828 129.651 48.917C129.723 48.7698 129.869 48.6655 130.087 48.6788C130.7 48.7176 131.269 48.507 131.833 48.2913C132.447 48.0572 133.059 47.8201 133.659 47.5543C134.832 47.035 135.958 46.4533 136.908 45.5833C137.871 44.7 138.919 43.9333 139.794 42.957C140.102 42.6135 140.399 42.2834 140.649 41.9C140.547 41.7916 140.503 41.6352 140.571 41.4461C140.931 40.4494 141.422 39.5058 141.742 38.4937C141.797 38.321 141.911 38.2167 142.045 38.1686C142.125 37.5266 142.188 36.8826 142.283 36.257C142.538 34.5784 143.022 32.9437 143.256 31.259C143.37 30.4309 143.406 29.5978 143.583 28.7789C143.749 28.0102 143.992 27.2608 144.226 26.5105C144.676 25.0639 145.069 23.5734 144.928 22.0441C144.864 21.35 144.645 20.708 144.34 20.1038C143.88 19.6008 143.413 19.1081 143.289 18.4007C143.283 18.3669 143.281 18.3342 143.28 18.3025C143.152 18.1972 143.095 18.0449 143.094 17.8936C142.696 17.91 142.33 17.3865 142.693 17.0185C143.881 15.8122 145.397 14.9944 146.658 13.8791C146.539 13.6613 146.565 13.3822 146.854 13.2453C146.894 13.2258 146.934 13.2085 146.974 13.1911C146.309 12.8599 145.673 12.8312 144.891 12.8496L144.888 12.8517Z" fill="#32569F"/>
<path d="M146.653 12.3168C146.19 11.6196 145.696 11.6472 145.078 12.0889C144.771 12.3097 144.421 12.5039 144.061 12.6123C143.786 12.6951 143.417 12.7237 143.174 12.6041C142.111 12.0817 141.844 12.1461 141.15 13.0938C140.889 13.4485 140.504 13.7123 140.007 14.1754C139.923 13.5947 139.952 13.2962 139.835 13.0744C139.476 12.3935 139.221 11.5062 138.643 11.1167C135.518 9.00974 132.228 9.07313 128.928 10.7405C128.532 10.9408 128.245 11.3528 127.898 11.6564C127.568 11.9458 127.224 12.2208 126.767 12.601C126.63 12.1195 126.523 11.8425 126.475 11.5563C126.203 9.939 125.931 8.32072 125.69 6.69937C125.617 6.2097 125.437 5.99399 124.908 6.00013C121.851 6.03386 118.94 6.59714 116.243 8.12546C115.287 8.66626 114.685 9.33483 114.609 10.4665C114.567 11.0891 114.399 11.7035 114.281 12.3209C114.015 13.7031 113.745 15.0852 113.425 16.7362C112.724 16.0502 112.202 15.5401 111.713 15.0627C108.647 18.2369 107.329 21.9642 108.014 26.2772C108.639 30.2161 109.36 34.1407 110.132 38.0529C110.592 40.3776 111.438 42.5193 113.045 44.3359L113.54 43.6367C113.014 43.0141 112.557 42.0981 112.139 41.3519C111.723 40.6107 111.547 39.7091 111.383 38.8575C110.668 35.1558 109.868 31.4623 109.362 27.7299C109.067 25.5585 109.202 23.3156 109.294 21.1116C109.326 20.3551 109.81 19.617 110.087 18.8697C110.229 18.8912 110.371 18.9137 110.512 18.9351C110.769 19.8583 111.028 20.7824 111.286 21.7055C111.37 21.6974 111.455 21.6882 111.54 21.68C111.488 20.8662 111.416 20.0535 111.391 19.2388C111.365 18.425 111.385 17.6092 111.385 16.5859C113.617 18.1459 114.11 20.2846 114.427 22.5162C114.509 22.4999 114.591 22.4835 114.672 22.4661C114.712 22.1952 114.828 21.91 114.781 21.6565C114.128 18.1817 114.831 14.7979 115.468 11.4142C115.602 10.7047 115.683 9.75295 116.156 9.39003C117.144 8.63047 118.377 8.18987 119.685 7.52947C119.779 9.96252 119.863 12.1236 119.946 14.2837C120.033 14.2899 120.12 14.295 120.207 14.3011C120.246 14.0353 120.307 13.7716 120.321 13.5047C120.4 11.8936 120.468 10.2815 120.541 8.66932C120.549 8.50576 120.524 8.31766 120.596 8.18476C120.732 7.93225 120.926 7.71042 121.095 7.47529C121.229 7.71144 121.469 7.94248 121.48 8.18476C121.526 9.13957 121.497 10.0985 121.502 11.0553C121.527 14.8859 121.622 18.7102 122.348 22.4886C122.372 22.6184 122.417 22.7442 122.632 22.8853C122.65 22.6512 122.673 22.4171 122.687 22.1829C122.704 21.9202 122.714 21.6575 122.736 21.1699C124.039 22.3383 124.081 23.8472 124.532 25.1609C124.602 25.1578 124.672 25.1558 124.742 25.1527C124.742 24.7019 124.864 24.2061 124.718 23.8074C124.339 22.7646 123.929 21.7147 123.373 20.7599C122.707 19.6139 122.343 18.4506 122.324 17.1165C122.282 14.1089 122.139 11.1034 122.07 8.09582C122.063 7.79629 122.233 7.26572 122.403 7.22994C123.026 7.09806 123.683 7.11647 124.326 7.12362C124.384 7.12362 124.456 7.45178 124.494 7.63374C125.015 10.123 125.53 12.6133 126.048 15.1026C126.103 15.3643 126.17 15.6229 126.25 15.9593C127.049 15.6168 127.382 14.9595 127.604 14.2735C128.409 11.8016 130.298 10.9695 132.948 10.6648C133.048 10.6536 133.154 10.6986 133.194 10.7067C132.764 14.434 132.338 18.1255 131.911 21.817C132.033 21.8435 132.155 21.8701 132.277 21.8967C132.409 21.4561 132.581 21.0227 132.666 20.5728C133.233 17.5387 133.79 14.5025 134.329 11.4632C134.43 10.8908 134.649 10.6566 135.261 10.7936C136.294 11.0237 137.222 11.4285 138.085 12.1645C137.145 13.3524 136.241 14.4974 135.336 15.6413C135.391 15.7057 135.447 15.7701 135.503 15.8345C136.155 15.6894 136.568 15.1762 136.992 14.6794C137.413 14.1856 137.834 13.6928 138.256 13.1991C138.356 13.2001 138.455 13.2021 138.555 13.2032C139.252 15.4706 139.95 17.7391 140.686 20.1312C141.163 19.8634 141.548 19.6303 141.949 19.4269C142.546 19.1243 142.883 19.3032 142.784 19.9656C142.703 20.5084 142.416 21.0308 142.169 21.5358C141.906 22.0725 141.546 22.5622 141.304 23.1061C141.2 23.3392 141.287 23.6571 141.433 23.9556C142.12 22.8577 142.807 21.7607 143.479 20.6843C144.034 21.2435 144.144 21.8139 143.627 22.4917C142.757 23.6336 142.268 24.9145 142.06 26.315C142.015 26.6187 142.053 26.9345 142.141 27.2678C142.739 25.946 143.12 24.5281 144.364 23.5089C144.364 23.7706 144.429 24.0527 144.355 24.2909C142.953 28.7307 142.002 33.2686 141.173 37.8485C140.709 40.4124 139.688 42.5479 137.965 44.1141L138.691 44.5557C138.964 44.3554 139.167 44.1437 139.348 43.9362C140.671 42.4232 141.566 40.6853 142.022 38.7369C142.32 37.4621 142.485 36.1556 142.792 34.8828C143.522 31.8589 144.274 28.8401 145.07 25.8346C145.567 23.9607 145.526 22.1523 144.67 20.4011C144.251 19.5434 143.797 18.698 143.295 17.8873C143.021 17.4446 142.96 17.14 143.399 16.7791C144.43 15.9296 145.446 15.0617 146.451 14.1815C147.139 13.5794 147.152 13.0795 146.649 12.3209L146.653 12.3168ZM145.301 13.9413C144.136 15.0014 142.947 16.0359 141.765 17.0787C141.642 17.187 141.528 17.3353 141.384 17.3782C141.151 17.4487 140.896 17.4477 140.651 17.4774C140.662 17.2228 140.615 16.9488 140.695 16.7178C140.954 15.9593 141.247 15.2109 141.556 14.4708C141.682 14.1651 141.882 13.8901 142.047 13.6008C142.26 13.8196 142.474 14.0384 142.684 14.2592C142.739 14.3175 142.784 14.3839 142.905 14.5352C143.857 13.9321 144.741 13.3718 145.626 12.8106C145.718 12.9159 145.81 13.0202 145.901 13.1255C145.704 13.4005 145.547 13.7194 145.301 13.9413Z" fill="#244079"/>
<path d="M113.511 43.602L112.844 44.0702C112.844 44.0702 121.699 57.1432 138.813 44.4679L138.314 43.8157C138.314 43.8157 123.973 56.1731 113.511 43.602Z" fill="#244079"/>
<path d="M131.289 33.2349C131.291 30.8867 133.557 28.6173 135.893 28.6244C138.247 28.6326 140.317 30.6352 140.333 32.9231C140.35 35.4134 138.219 37.5766 135.745 37.5796C133.312 37.5817 131.288 35.6087 131.289 33.2349ZM135.868 32.2024C135.874 31.4275 135.265 30.7477 134.568 30.7497C133.819 30.7518 133.099 31.45 133.105 32.1687C133.111 32.8751 133.796 33.5242 134.527 33.5171C135.259 33.5099 135.862 32.919 135.869 32.2024H135.868ZM136.422 34.2838C136.115 34.754 135.766 35.0566 135.815 35.2703C135.881 35.5596 136.25 35.7794 136.488 36.0299C136.728 35.7794 137.139 35.5422 137.161 35.2744C137.181 35.026 136.787 34.7438 136.422 34.2838Z" fill="#244079"/>
<path d="M121.927 33.6836C121.928 35.8417 119.664 37.9128 117.299 37.9169C114.952 37.921 113.022 35.9735 113.034 33.6131C113.046 31.2127 115.109 29.1334 117.483 29.1273C119.91 29.1211 121.923 31.1882 121.925 33.6836H121.927ZM117.457 32.5182C117.466 31.7075 116.98 31.1207 116.275 31.0942C115.549 31.0666 114.784 31.8128 114.764 32.5673C114.747 33.2318 115.327 33.749 116.084 33.7449C116.896 33.7409 117.448 33.2471 117.457 32.5182ZM119.176 36.0114C119.182 35.902 119.187 35.7926 119.193 35.6832C118.917 35.489 118.627 35.1261 118.369 35.1475C118.09 35.171 117.841 35.5534 117.579 35.7793C117.839 36.0103 118.072 36.3661 118.37 36.4315C118.596 36.4816 118.905 36.1647 119.176 36.0114Z" fill="#244079"/>
</svg>
