<svg width="154" height="100" viewBox="0 0 154 100" fill="none" xmlns="http://www.w3.org/2000/svg">
<rect width="154" height="100" rx="6" fill="#1D1D1D"/>
<path d="M38.0003 49.997C37.9193 28.647 55.4913 10.4833 78.0385 11.0112C98.6759 11.4938 116.55 28.6016 115.987 51.149C115.476 71.6373 98.4782 89.5463 75.8866 88.9872C55.1219 88.4744 37.9869 71.4334 38.0003 49.997ZM41.8446 50.2597C42.0298 59.881 45.5101 68.4153 52.6886 75.2964C59.8556 82.1658 68.4872 85.4483 78.4097 85.0655C87.9699 84.6969 96.094 80.9435 102.616 73.9716C109.29 66.8377 112.467 58.2874 112.059 48.512C111.662 38.9841 107.917 30.8878 100.967 24.386C93.8468 17.7267 85.3123 14.551 75.5589 14.941C65.9988 15.3229 57.8907 19.0897 51.3541 26.0482C45.064 32.745 41.9951 40.7959 41.8438 50.2597H41.8446Z" fill="white"/>
<path d="M82.0716 44.2297C82.4651 44.3045 82.6957 44.3428 82.9227 44.3944C82.9904 44.4095 83.05 44.4621 83.1435 44.5146C82.9574 45.1084 82.7811 45.6978 82.5817 46.2791C82.5497 46.3717 82.4232 46.443 82.3253 46.4999C81.9345 46.727 81.5383 46.9442 81.0958 47.1926C81.0958 46.6833 81.1038 46.2426 81.0887 45.8028C81.086 45.72 80.9881 45.6399 80.9338 45.5589C80.8866 45.6355 80.802 45.7102 80.7993 45.7886C80.7851 46.1883 80.7815 46.5899 80.7958 46.9896C80.8038 47.2255 80.7468 47.368 80.4984 47.4534C80.1111 47.5852 79.7407 47.7641 79.3152 47.9431V46.0957C79.162 46.0859 79.0401 46.0779 78.87 46.0673C78.87 46.6023 78.8317 47.1071 78.8816 47.6021C78.9261 48.0384 78.7471 48.2048 78.3581 48.2876C77.9735 48.3695 77.5978 48.496 77.174 48.6161V46.4608H76.768V48.6277C76.2107 48.4568 75.705 48.3161 75.2144 48.1354C75.1289 48.1042 75.0639 47.9048 75.0604 47.7811C75.0435 47.2335 75.0532 46.6851 75.0532 46.1198C74.7977 46.0121 74.6677 46.0494 74.674 46.3566C74.6847 46.8739 74.6766 47.392 74.6766 47.9698C74.2359 47.7775 73.8282 47.6146 73.4382 47.4178C73.3519 47.3742 73.2895 47.2148 73.278 47.1035C73.2281 46.605 73.2005 46.1046 73.1649 45.6016C72.7678 45.4645 72.8177 45.7183 72.8337 45.9391C72.864 46.3432 72.8951 46.7465 72.9334 47.2398C72.4081 46.946 71.9665 46.7136 71.5436 46.4527C71.4324 46.3842 71.3478 46.2364 71.3015 46.1073C71.1572 45.7049 71.0682 45.2802 70.8999 44.8894C70.7165 44.4621 70.9471 44.365 71.2774 44.3134C71.419 44.2911 71.565 44.2947 71.7039 44.2867C71.809 43.9038 71.5463 43.7659 71.322 43.7115C70.5955 43.537 69.8618 43.3866 69.1229 43.2771C68.716 43.2165 68.294 43.2664 67.8791 43.2495C67.4749 43.2335 67.1624 43.0474 67.0244 42.6565C66.6576 41.6131 66.2944 40.5679 65.956 39.5147C65.8296 39.1221 65.9605 38.8194 66.3603 38.6022C67.174 38.1606 67.3663 37.6745 67.1526 36.7575C66.8357 35.3945 66.4609 34.043 66.2071 32.6684C66.0121 31.6125 65.9347 30.5317 65.8626 29.4589C65.8091 28.6674 65.7985 27.8662 65.859 27.0756C65.9845 25.4357 66.8143 24.118 67.9174 22.9598C69.5485 21.2469 71.5864 20.1785 73.8567 19.7147C75.2536 19.4289 76.7413 19.525 78.1854 19.5544C79.089 19.5731 80.0185 19.6835 80.883 19.9346C82.9868 20.5471 84.8458 21.6065 86.3175 23.2776C87.6565 24.7965 88.2272 26.5468 88.1515 28.5766C88.0518 31.2804 87.6031 33.913 86.8508 36.5029C86.5445 37.5561 86.7012 38.2407 87.6796 38.6814C88.026 38.8372 88.1168 39.1506 87.9993 39.504C87.6565 40.5394 87.3128 41.574 86.954 42.604C86.784 43.091 86.3833 43.2513 85.9017 43.2664C85.2811 43.2851 84.6535 43.2584 84.0418 43.3412C83.5237 43.4115 83.0162 43.5914 82.5203 43.7676C82.3645 43.8228 82.2621 44.0258 82.0707 44.2279L82.0716 44.2297ZM70.8652 35.1754L70.8171 35.2956C70.2411 35.3081 69.7283 35.4701 69.2689 35.8449C68.7044 36.3061 68.8745 36.9302 68.7926 37.5178C68.6777 38.3324 69.0499 38.7865 69.7238 39.1061C70.4815 39.4658 71.2133 39.9091 72.1152 39.5904C73.1667 39.2191 74.1549 38.7339 75.0328 38.0404C75.4316 37.7252 75.4352 37.5267 75.0203 37.2596C74.325 36.8109 73.6403 36.3346 72.9049 35.9616C72.2586 35.6339 71.5481 35.4327 70.8661 35.1754H70.8652ZM85.201 37.5757C85.201 36.0951 84.8306 35.5333 83.6946 35.3517C83.245 35.2796 82.7046 35.2841 82.3084 35.4719C81.1804 36.007 80.0978 36.6409 79.0142 37.265C78.5789 37.5151 78.57 37.7555 78.9938 38.0262C79.7122 38.4847 80.4619 38.8969 81.2035 39.318C82.1891 39.878 83.1462 39.7409 84.1077 39.2209C84.8324 38.8292 85.5028 38.4366 85.201 37.5748V37.5757ZM77.0395 38.6324C76.9033 38.7544 76.8428 38.7856 76.8178 38.8345C76.2783 39.8824 75.7379 40.9294 75.2135 41.9844C75.1387 42.1339 75.1147 42.3307 75.1307 42.499C75.1672 42.8747 75.3551 43.1533 75.7299 43.2949C76.094 43.432 76.2516 43.2174 76.4475 42.9673C76.7894 42.5319 77.2692 42.596 77.6734 43.0937C77.9646 43.4525 78.2913 43.4703 78.5646 43.1061C78.789 42.807 78.943 42.4865 78.7409 42.0841C78.529 41.663 78.391 41.2054 78.18 40.7834C77.8257 40.0756 77.4393 39.3838 77.0386 38.6324H77.0395Z" fill="white"/>
<path d="M59.3642 47.2326C59.4933 47.0314 59.6126 46.8463 59.7443 46.6415C60.0755 46.6958 60.4094 46.7483 60.7424 46.8062C61.0513 46.8605 61.395 46.8374 61.3923 47.335C61.3923 47.4508 61.7182 47.5763 61.9025 47.684C62.2684 47.8986 62.6325 48.0108 62.9566 47.6075C62.9744 47.5852 62.9993 47.5638 63.0251 47.5523C63.2993 47.4267 64.5645 48.163 64.5235 48.4621C64.4621 48.9162 64.7247 49.1014 65.0435 49.2839C65.2741 49.4156 65.5002 49.5545 65.7308 49.6925C65.786 49.6587 65.8376 49.6302 65.8866 49.5973C66.1252 49.4334 66.419 49.0871 66.5908 49.1396C67.0137 49.2687 67.3894 49.5688 67.7625 49.8305C67.8399 49.8848 67.8462 50.0691 67.8515 50.1946C67.8889 51.0547 68.1711 51.206 68.9119 50.7315C69.7968 50.1653 70.7201 49.6436 71.5347 48.9883C72.3022 48.3704 72.9726 48.2503 73.8175 48.8049C74.3294 49.1405 74.9464 49.3124 75.5037 49.5839C75.6141 49.6382 75.7272 49.8091 75.7343 49.9329C75.8038 51.1072 75.7966 51.1063 74.7114 51.6164C72.839 52.4969 70.9623 53.3676 69.0997 54.2677C68.067 54.7672 67.0565 54.7476 66.0201 54.3024C63.7961 53.348 61.573 52.3919 59.3384 51.4642C58.4 51.0742 57.4349 50.7493 56.4787 50.4047C55.892 50.1937 55.2937 50.1706 54.6909 50.3451C53.3706 50.7261 52.02 51.0627 50.9294 51.9512C49.7105 52.9439 48.7125 54.1297 48.1356 55.6183C48.0368 55.8729 47.783 56.1578 48.1703 56.4293C48.2451 56.4819 48.2032 56.7098 48.205 56.8576C48.2086 57.154 48.1881 57.4523 48.2113 57.7479C48.2326 58.0265 48.1293 58.1788 47.8774 58.2936C47.7634 58.3452 47.6192 58.5233 47.6317 58.6284C47.6869 59.1242 47.791 59.6139 47.8863 60.1534C48.9208 59.7234 48.9324 60.6805 49.2805 61.1488C49.6375 61.6295 48.9288 61.7337 48.9137 62.2581C49.2048 62.5893 49.5984 63.0371 50.0257 63.5241C50.2688 63.2917 50.4575 63.1119 50.6587 62.9204C50.8323 62.9881 51.0042 63.0736 51.1858 63.1225C51.8126 63.2926 52.2497 63.5793 52.0779 64.344C52.0565 64.4384 52.2114 64.6512 52.32 64.6805C52.7385 64.7945 53.1703 64.8568 53.6137 64.9423C53.676 64.5764 53.7223 64.3057 53.7695 64.0244C54.1959 63.9505 54.5983 63.8552 55.0052 63.8259C55.1486 63.8152 55.3293 63.938 55.4459 64.0493C55.5581 64.1562 55.6231 64.3218 55.6854 64.4704C55.7807 64.6983 55.9018 64.7375 56.1341 64.6342C56.5081 64.4678 56.9016 64.3458 57.3512 64.182C56.8019 63.4368 57.28 63.046 57.807 62.6685C57.9504 62.5661 58.0803 62.4459 58.2379 62.3168C58.4685 62.4557 58.7053 62.5982 58.9956 62.7727C59.2556 62.3667 59.5137 61.9643 59.7693 61.5654C59.1728 60.9075 59.8298 60.3341 59.8156 59.6914H60.624C60.6489 59.1643 60.672 58.6684 60.697 58.1378C60.4708 58.0995 60.2474 58.0612 59.9625 58.0132C59.9625 57.5404 59.9607 57.0686 59.9642 56.5976C59.9642 56.5246 59.958 56.4213 59.9999 56.3839C60.3782 56.051 60.2224 55.6681 60.169 55.2319C60.3141 55.3752 60.5047 55.4945 60.5955 55.6664C61.0478 56.5255 61.5526 57.3713 61.8757 58.2803C62.0307 58.7165 61.9434 59.3272 61.7645 59.7804C60.9098 61.9474 59.9981 64.0921 59.0802 66.2332C58.708 67.1012 58.2824 67.9461 57.8489 68.7857C57.7652 68.9468 57.5462 69.0999 57.3645 69.1382C55.6338 69.5015 53.8994 69.8549 52.1589 70.1683C51.9114 70.2128 51.5205 70.1158 51.3674 69.9377C49.8672 68.1883 48.2469 66.5315 47.0628 64.5292C46.1956 63.062 45.6935 61.4568 45.3213 59.8124C44.9029 57.9651 44.6643 56.0875 44.7195 54.1894C44.7657 52.5949 44.9759 51.0208 45.4246 49.478C45.9401 47.7036 47.126 46.7991 48.9182 46.6344C50.372 46.5008 51.8277 46.3174 53.2842 46.3032C55.3088 46.2836 57.3227 46.4795 59.2431 47.2148C59.2698 47.2246 59.3001 47.2246 59.3668 47.2362L59.3642 47.2326Z" fill="white"/>
<path d="M88.2619 49.6952C88.521 49.5358 88.7658 49.3694 89.0267 49.2314C89.3276 49.0729 89.5039 48.8806 89.47 48.5013C89.4585 48.3651 89.6214 48.1817 89.7505 48.074C89.9054 47.9449 90.1271 47.8959 90.2882 47.7722C90.6577 47.4891 90.9871 47.465 91.3326 47.8149C91.3985 47.8817 91.5792 47.8861 91.6843 47.8514C91.9353 47.7686 92.1748 47.6502 92.4143 47.5354C92.49 47.4989 92.6084 47.4259 92.6057 47.3751C92.5737 46.7777 93.0286 46.857 93.3856 46.7955C93.6616 46.7475 93.9367 46.6931 94.2341 46.6371C94.3632 46.8329 94.4914 47.0261 94.5965 47.1855C95.5473 46.9647 96.4697 46.7092 97.4072 46.5409C99.0712 46.2427 100.758 46.2418 102.435 46.378C103.695 46.4804 104.958 46.6415 106.196 46.8926C107.234 47.1027 107.906 47.8461 108.318 48.8111C108.793 49.9222 109.024 51.0992 109.117 52.2895C109.213 53.5234 109.292 54.7734 109.207 56.0038C108.92 60.1695 107.87 64.0654 104.953 67.2517C104.184 68.0913 103.466 68.9762 102.73 69.846C102.477 70.1452 102.193 70.2502 101.794 70.1692C100.046 69.8131 98.293 69.4872 96.5454 69.132C96.4002 69.1026 96.2239 68.9682 96.159 68.8346C94.7327 65.9189 93.3598 62.9783 92.2407 59.9264C91.9585 59.1581 91.9059 58.4067 92.3226 57.6606C92.6814 57.0178 93.0064 56.3555 93.3678 55.7136C93.4711 55.5302 93.6483 55.3877 93.845 55.1669C93.8219 55.5355 93.6928 55.8809 93.8121 56.0661C94.0632 56.4561 94.0276 56.8478 94.0258 57.2538C94.0258 57.5039 93.9982 57.7532 93.9813 58.0212C93.7596 58.0559 93.545 58.0889 93.3349 58.1218V59.6807H94.1379C94.259 60.1312 94.405 60.5496 94.4709 60.9805C94.4976 61.1577 94.3516 61.3607 94.2608 61.6197C94.4629 61.9411 94.7131 62.3391 94.9837 62.7691C95.2517 62.6115 95.5001 62.4664 95.7592 62.3142C96.0192 62.5385 96.2551 62.7923 96.5373 62.9721C96.9086 63.2089 96.9754 63.4769 96.7724 63.8499C96.7261 63.9354 96.7279 64.0476 96.6994 64.19C97.1169 64.352 97.5327 64.5337 97.9645 64.6645C98.0509 64.6904 98.2387 64.5506 98.3073 64.4411C98.7168 63.7876 98.7097 63.7823 99.4905 63.8962C99.7095 63.9283 99.9268 63.9683 100.191 64.0119C100.223 64.1241 100.275 64.2586 100.299 64.3974C100.324 64.5399 100.323 64.6868 100.335 64.8613C100.608 64.8613 100.86 64.888 101.104 64.8559C101.83 64.7607 101.945 64.6405 101.917 63.9131C101.904 63.5721 102.018 63.4119 102.336 63.3149C102.672 63.2125 102.99 63.0522 103.37 62.8955C103.516 63.086 103.67 63.2855 103.89 63.5721C104.363 63.054 104.77 62.6089 105.165 62.1771C104.513 61.2814 104.493 61.2681 105.239 60.2487C105.363 60.0804 105.735 60.0947 105.992 60.0243C106.03 60.0653 106.066 60.1062 106.104 60.1472C106.193 59.605 106.291 59.0637 106.358 58.5189C106.366 58.4521 106.229 58.3239 106.138 58.2972C105.81 58.2019 105.761 57.9785 105.777 57.6829C105.795 57.3579 105.78 57.0303 105.782 56.7036C105.782 56.6145 105.757 56.4792 105.804 56.4454C106.222 56.1356 105.944 55.8017 105.813 55.5177C104.697 53.0819 102.946 51.3511 100.302 50.6336C99.9748 50.5445 99.649 50.4528 99.3249 50.354C98.6607 50.151 98.0144 50.216 97.3716 50.4511C94.2537 51.5897 91.1527 52.7712 88.1604 54.2188C87.0475 54.7574 85.9471 54.7903 84.7995 54.2232C82.7464 53.2092 80.6613 52.2575 78.5833 51.2959C78.3109 51.1695 78.2317 51.0173 78.2361 50.7253C78.253 49.6569 78.2423 49.6605 79.2119 49.2403C79.8084 48.9821 80.4067 48.7275 80.9872 48.4363C81.2498 48.3046 81.4394 48.3304 81.6718 48.4862C82.7162 49.1877 83.7694 49.8742 84.82 50.5659C84.9437 50.6469 85.0639 50.7342 85.1939 50.8027C85.8607 51.1571 86.1145 51.0226 86.1234 50.2766C86.1269 49.9774 86.2097 49.802 86.4768 49.6418C87.3921 49.0916 87.3841 49.0782 88.2574 49.6961L88.2619 49.6952Z" fill="white"/>
<path d="M81.7315 64.0752C81.3175 64.4838 81.224 64.8569 81.1403 65.2913C81.0602 65.7089 80.6355 66.0605 80.3613 66.4398C80.3542 66.4496 80.3319 66.4585 80.3203 66.4549C79.3962 66.1745 79.6303 67.1592 79.0997 67.461C80.2429 67.9159 79.5734 68.6183 79.463 69.2282C79.4389 69.3635 79.2422 69.4677 79.0365 69.676V70.8734C79.9731 70.5823 80.1547 71.2509 80.4129 71.8812C80.6293 72.4101 80.0247 72.443 79.9589 72.8606C80.2322 73.2007 80.5509 73.5995 80.8892 74.0206C81.1599 73.8265 81.4101 73.6467 81.6781 73.4544C82.0039 73.685 82.3431 73.8978 82.6449 74.1542C82.7384 74.2343 82.7633 74.4328 82.7625 74.577C82.7616 74.7613 82.7019 74.9447 82.6645 75.1495C83.1586 75.2759 83.6109 75.3925 84.0133 75.4958C84.3632 75.2376 84.203 74.5388 84.7496 74.6349C85.3337 74.7373 86.2934 74.2245 86.2934 75.4753C86.8534 75.2465 87.3387 75.0489 87.807 74.8584C87.8791 74.5227 87.3947 74.1274 87.9227 73.912C88.4222 73.7081 88.7845 72.825 89.5012 73.5915C89.7701 73.2265 90.0639 72.9033 90.258 72.5285C90.3435 72.3638 90.225 72.0931 90.1841 71.7441C90.3488 71.4512 90.5874 71.0275 90.8269 70.6037C90.8563 70.552 90.8794 70.4648 90.9195 70.4559C91.5418 70.3215 91.3317 69.7846 91.378 69.4232C91.6175 67.5687 90.9533 65.9706 89.8867 64.5025C89.1896 63.5437 88.4498 62.6329 87.4419 61.9652C86.589 61.3999 85.6204 61.2334 84.6517 61.0446C83.1613 60.7535 81.6718 60.4597 80.185 60.1535C80.0283 60.1214 79.8556 60.0261 79.7505 59.9077C79.0463 59.1091 78.3527 58.3017 77.6725 57.4835C77.5595 57.3482 77.4669 57.1478 77.4651 56.976C77.4491 55.4331 77.4553 53.8903 77.4562 52.3465C77.4562 52.3047 77.4758 52.2637 77.4998 52.164C78.0999 52.3928 78.6937 52.6011 79.2689 52.8531C79.4069 52.9136 79.4879 53.1166 79.5814 53.2626C80.1672 54.1787 80.8189 55.0298 81.7706 55.6085C82.076 55.7937 82.3253 55.8747 82.5568 55.5231C82.7616 55.2106 83.0242 55.1759 83.3358 55.3717C83.4605 55.4501 83.5958 55.5195 83.7347 55.5649C84.2546 55.7323 84.633 55.9878 84.4754 56.627C84.4621 56.6822 84.4665 56.7499 84.487 56.8024C84.5742 57.025 85.8999 57.4256 86.0664 57.2636C86.3967 56.9431 86.7413 56.8897 87.1428 57.1069C87.2443 57.1621 87.3663 57.1799 87.4784 57.2164C88.0079 57.3909 88.242 57.7737 88.1809 58.3649C88.724 58.4325 89.0952 59.1804 89.8093 58.7415C90.2055 58.9631 90.4539 59.2917 90.5518 59.7831C90.6159 60.1027 90.8091 60.4054 90.9827 60.693C92.7046 63.5437 93.8949 66.6214 94.8921 69.7828C94.8965 69.7971 94.8947 69.814 94.901 69.8265C95.5536 71.0809 95.1529 72.1198 94.2768 73.0965C92.4784 75.1023 90.7254 77.1589 88.5228 78.7427C87.628 79.3864 86.6291 79.8849 85.6702 80.436C85.5741 80.4912 85.4147 80.4832 85.2998 80.4503C83.4587 79.9152 81.6184 79.3766 79.7835 78.8228C79.6357 78.7783 79.4585 78.6492 79.4024 78.5148C78.8335 77.1393 78.2753 75.7593 77.742 74.3696C77.6396 74.1034 77.628 73.79 77.6271 73.498C77.6182 71.421 77.6289 69.343 77.6156 67.266C77.6129 66.9054 77.6912 66.6179 77.9334 66.3401C78.7374 65.4186 79.5547 64.5257 80.8064 64.2123C80.8777 64.1945 80.9489 64.1713 81.021 64.1615C81.208 64.1357 81.3949 64.1152 81.7297 64.0752H81.7315Z" fill="white"/>
<path d="M64.1817 58.7316C64.3811 59.0058 64.6161 58.9284 64.8654 58.7699C65.0016 58.6827 65.1485 58.6025 65.3017 58.5536C65.6809 58.4316 65.8483 58.1966 65.7655 57.7959C65.7085 57.5235 65.8465 57.3944 66.1012 57.3321C66.3451 57.2724 66.5971 57.2146 66.8179 57.1024C67.2123 56.9021 67.5355 56.9386 67.8542 57.2546C67.9308 57.3312 68.124 57.3481 68.2415 57.3143C68.5949 57.2119 68.9493 57.0953 69.2769 56.9332C69.3873 56.8789 69.4924 56.659 69.4754 56.5317C69.4078 56.0358 69.5965 55.7652 70.0702 55.621C70.4058 55.5186 70.7183 55.3414 71.0326 55.2016C71.0869 55.2337 71.1314 55.2497 71.1626 55.2791C71.8018 55.8729 71.8543 55.9326 72.5096 55.3503C73.1542 54.7778 73.7204 54.1003 74.2377 53.4068C74.5262 53.0204 74.8129 52.7257 75.2767 52.5895C75.656 52.4782 76.0219 52.3198 76.4377 52.1666C76.4492 52.3304 76.4653 52.4542 76.4653 52.5779C76.4671 54.0166 76.4742 55.4562 76.4573 56.895C76.4546 57.0953 76.3816 57.3348 76.256 57.487C75.5625 58.3328 74.8583 59.1705 74.1184 59.9762C73.9662 60.1427 73.6554 60.189 73.4071 60.238C71.6727 60.5861 69.9331 60.9093 68.1996 61.2636C66.9149 61.5262 65.9053 62.2554 65.0648 63.2329C64.0677 64.3921 63.1605 65.6047 62.7331 67.1119C62.4562 68.0886 62.4731 69.0652 62.6316 70.0508C62.6485 70.154 62.71 70.2618 62.7803 70.3428C62.9147 70.4995 63.0901 70.625 63.2103 70.7906C63.3483 70.9802 63.4267 71.2135 63.5638 71.4049C63.7935 71.7245 63.9057 72.0245 63.5184 72.3344C63.8237 72.7528 64.1158 73.1525 64.4496 73.6101C64.8868 73.0252 65.2447 73.3769 65.6159 73.644C65.8314 73.7989 66.0549 73.9413 66.281 74.0927C66.2249 74.3437 66.1706 74.585 66.1092 74.8601C66.6015 75.0578 67.0769 75.2483 67.6183 75.4664C67.6832 74.2805 68.6074 74.7123 69.2137 74.6366C69.731 74.5725 69.6036 75.2385 69.917 75.5091C70.3524 75.3925 70.8136 75.2687 71.3478 75.1263C70.7557 74.2369 71.5249 73.9903 72.0164 73.6226C72.5176 73.2478 72.6512 73.968 73.0954 73.9645C73.3768 73.6164 73.6973 73.2193 74.0623 72.7653C73.1676 72.3548 73.5816 71.7672 73.8166 71.1859C74.0285 70.6633 74.4986 70.9286 74.8761 70.8084V69.5869C74.2751 69.3092 74.3276 68.6922 74.1994 68.2203C74.1442 68.0156 74.4656 67.7093 74.6668 67.3621C74.5627 67.1662 74.4113 66.8493 74.2252 66.5546C74.1709 66.4691 73.9875 66.3801 73.911 66.4104C73.6109 66.5315 73.4818 66.3632 73.3403 66.1575C73.2058 65.9634 73.0465 65.7863 72.9031 65.5975C72.8408 65.5165 72.7269 65.4052 72.7464 65.342C72.9058 64.8346 72.5951 64.4927 72.2541 64.1072C73.7329 64.1401 74.6918 64.9263 75.6034 65.8513C76.1572 66.413 76.321 67.03 76.2979 67.8001C76.2489 69.4302 76.2267 71.0657 76.3006 72.6949C76.3611 74.0268 76.0103 75.2376 75.5109 76.4288C75.2251 77.109 74.9135 77.7803 74.5832 78.44C74.5021 78.602 74.3214 78.7712 74.1522 78.8228C72.3342 79.3792 70.51 79.9161 68.684 80.4449C68.546 80.485 68.3626 80.4689 68.2308 80.4111C66.4929 79.6463 64.9402 78.586 63.6119 77.2443C62.1357 75.7531 60.7379 74.1844 59.3259 72.6308C58.6751 71.915 58.595 71.12 58.903 70.1727C60.0141 66.7514 61.2775 63.4039 63.172 60.3252C63.2851 60.1418 63.3626 59.9237 63.4044 59.7118C63.4934 59.2551 63.7347 58.9346 64.1825 58.7343L64.1817 58.7316Z" fill="white"/>
<path d="M56.0825 30.4472C56.4253 30.5371 56.7039 30.5834 56.9612 30.6849C57.2791 30.8104 57.5738 30.992 57.8827 30.6626C57.921 30.6216 58.0768 30.6581 58.1578 30.6982C58.5157 30.8745 58.879 31.0445 59.2119 31.2618C59.3223 31.3339 59.4229 31.5591 59.3927 31.6811C59.3295 31.9402 59.4354 32.0461 59.617 32.1894C59.9251 32.4334 60.1993 32.7201 60.5438 33.0423C61.5552 32.5108 61.573 33.6237 61.9897 34.1054C62.0743 34.2024 61.9238 34.5033 61.8606 34.8158C61.9505 35.0571 62.0681 35.4346 62.2381 35.7871C62.2889 35.8931 62.4803 35.9741 62.6147 35.9856C62.8132 36.0034 63.0189 35.95 63.245 35.9242C63.375 36.4237 63.5139 36.8875 63.6056 37.3603C63.6297 37.4822 63.5326 37.654 63.4436 37.7636C63.335 37.8971 63.1747 37.9888 63.0367 38.0992C63.1943 38.6423 63.3474 39.1738 63.5095 39.7329C63.513 39.7347 63.5522 39.7551 63.594 39.7631C63.9057 39.821 64.3793 39.7712 64.495 39.9528C64.747 40.3481 64.8708 40.852 64.934 41.3274C64.958 41.5037 64.6865 41.7414 64.5146 41.9159C64.3054 42.1286 64.2707 42.3503 64.4051 42.5952C64.7025 43.1373 64.9553 43.7214 65.3444 44.1906C65.5403 44.4274 65.9881 44.5271 66.3326 44.5547C67.2746 44.6304 68.2228 44.6241 69.1665 44.6784C69.3205 44.6873 69.5342 44.8013 69.6045 44.9295C70.0933 45.8233 70.5527 46.7341 71.0388 47.6743C70.3488 48.0063 69.617 48.0606 68.8896 48.1301C68.757 48.1425 68.6216 48.1203 68.4899 48.1336C67.7999 48.204 67.158 48.1096 66.5258 47.7757C65.3364 47.1472 64.1176 46.573 62.9094 45.9809C61.2828 45.1841 60.51 43.7605 60.0951 42.0957C59.8209 40.9935 59.6642 39.8602 59.3482 38.7723C59.0535 37.7582 58.7178 36.7308 58.2192 35.8067C57.361 34.2166 55.9267 33.3166 54.1585 33.0121C53.4116 32.8839 52.6379 32.9079 51.8776 32.8625C51.8375 33.7519 51.0113 33.5667 50.6765 33.9994C50.5198 33.8587 50.4005 33.751 50.2563 33.6219C49.9287 33.8765 49.6073 34.1258 49.2618 34.3938C49.7818 35.0037 49.2137 35.3856 48.9582 35.7889C48.8754 35.9207 48.4757 35.8521 48.1498 35.8815C48.0483 36.1895 47.9166 36.5893 47.7884 36.9756C47.9878 37.0941 48.2887 37.1724 48.3181 37.3086C48.3902 37.6478 48.3582 38.0155 48.3225 38.3672C48.3136 38.458 48.1311 38.5265 48.0359 38.6138C47.937 38.7037 47.7581 38.8141 47.7679 38.8969C47.8062 39.2129 47.9005 39.5237 47.9949 39.8299C48.0038 39.8593 48.1712 39.878 48.2397 39.8459C48.8639 39.561 48.9244 40.1762 49.1942 40.4424C49.4595 40.7042 49.1577 40.892 49.0704 41.1048C49.0428 41.1716 48.9965 41.2303 48.9564 41.2962C49.2547 41.5793 49.5432 41.8535 49.853 42.1464C49.9759 42.0085 50.1299 41.8357 50.2955 41.6497C50.7754 41.9648 51.6541 41.8491 51.2944 42.8845C51.6968 42.8845 52.0414 42.9344 52.3628 42.8676C52.5969 42.8195 52.7875 42.5934 53.0172 42.491C53.4347 42.304 53.8594 42.1803 54.0152 42.7999C55.1103 42.4171 55.1468 42.3788 55.0052 41.6942C55.3756 41.5419 55.7789 41.4048 56.1537 41.2116C56.3825 41.0932 56.5659 40.8885 56.7324 40.7523C56.9105 41.3274 56.8339 41.7058 56.3077 42.1002C55.267 42.8809 54.2493 43.7116 53.1302 44.3615C52.4776 44.7408 51.6505 44.8316 50.892 45.0096C50.4495 45.1138 49.9874 45.1832 49.536 45.1761C49.1844 45.1708 48.8095 45.0764 48.489 44.9268C47.5702 44.4995 46.679 44.0125 45.7647 43.5736C45.4184 43.4071 45.2127 43.1712 45.2136 42.7937C45.2171 41.2668 45.2136 39.7391 45.259 38.2131C45.2688 37.8748 45.4682 37.5428 45.5795 37.2071C45.965 36.0462 46.3336 34.8799 46.7414 33.727C46.9675 33.086 47.4233 32.6898 48.0831 32.4218C49.6696 31.7781 51.2161 31.0383 52.7892 30.3617C53.0902 30.2326 53.4383 30.1836 53.7686 30.1596C54.3882 30.1151 55.0106 30.1222 55.6311 30.0928C55.9178 30.0795 56.1475 30.0999 56.0807 30.4472H56.0825Z" fill="white"/>
<path d="M106.087 39.8655C106.131 39.6367 106.145 39.4417 106.209 39.2654C106.335 38.9147 106.278 38.6859 105.895 38.547C105.789 38.5087 105.689 38.3146 105.675 38.182C105.643 37.8748 105.665 37.5614 105.665 37.2222C105.85 37.1617 106.027 37.1038 106.248 37.0317C106.122 36.6222 105.998 36.2215 105.869 35.8004C105.525 35.7978 105.105 36.1628 104.907 35.585C104.778 35.2075 104.239 34.8932 104.807 34.424C104.443 34.1436 104.108 33.8845 103.768 33.6219C103.645 33.7367 103.537 33.8373 103.382 33.9816C102.991 33.6255 102.249 33.7091 102.143 32.9479C99.2279 32.5803 96.1901 33.775 95.0843 37.4127C94.6739 38.7642 94.43 40.1646 94.0863 41.5375C93.8424 42.5105 93.5753 43.4765 93.0055 44.3294C92.4615 45.1449 91.719 45.7076 90.8527 46.1287C89.5644 46.7546 88.2761 47.3804 86.9879 48.0045C86.8819 48.0562 86.7715 48.1318 86.662 48.1345C85.4369 48.163 84.2128 48.1719 82.985 47.6929C83.4969 46.7065 83.9911 45.7387 84.5101 44.7843C84.5564 44.6989 84.7674 44.6793 84.9045 44.6713C85.98 44.609 87.0591 44.5858 88.1292 44.4799C88.3874 44.4541 88.6866 44.211 88.8486 43.984C89.1549 43.5549 89.3837 43.0688 89.6303 42.5987C89.7674 42.3369 89.7425 42.0868 89.4914 41.8891C89.081 41.5668 89.0106 41.1796 89.2617 40.7228C89.3098 40.6347 89.3401 40.5279 89.3481 40.4273C89.3917 39.8984 89.7202 39.7471 90.1894 39.7818C90.4725 39.8023 90.6185 39.7302 90.6364 39.3972C90.6515 39.1105 90.7441 38.8114 90.8714 38.5505C91.0361 38.214 90.9684 37.9843 90.6586 37.8187C90.4075 37.6843 90.339 37.5036 90.444 37.2463C90.4601 37.2062 90.4654 37.1608 90.4761 37.1181C90.5607 36.7744 90.5473 36.3364 90.7592 36.1174C90.9435 35.9269 91.3842 35.9847 91.7172 35.9313C91.8552 35.6037 92.0101 35.2556 92.1454 34.9004C92.181 34.8069 92.1988 34.6431 92.1463 34.5923C91.873 34.3261 91.9994 34.1044 92.1721 33.8596C92.3929 33.548 92.5968 33.2239 92.814 32.8972C93.0598 32.9577 93.2868 33.0138 93.4524 33.0548C93.821 32.7272 94.1629 32.4307 94.4941 32.1235C94.5617 32.0612 94.6481 31.9437 94.6303 31.8769C94.503 31.398 94.7986 31.2306 95.1591 31.0712C95.469 30.935 95.7601 30.7578 96.0726 30.5913C96.7279 31.2911 97.2763 30.302 97.9351 30.5442C97.9324 30.0634 98.1826 30.0937 98.5192 30.1231C99.1085 30.1756 99.7051 30.1266 100.297 30.1587C100.599 30.1747 100.917 30.2263 101.191 30.3438C102.846 31.0543 104.479 31.8217 106.146 32.5019C106.903 32.8108 107.205 33.4216 107.445 34.0813C107.807 35.0775 108.019 36.1334 108.438 37.102C108.904 38.1784 108.732 39.2824 108.8 40.3765C108.849 41.16 108.807 41.9488 108.809 42.7349C108.81 43.1943 108.584 43.4204 108.154 43.6074C107.291 43.9813 106.454 44.4229 105.639 44.893C105.273 45.104 104.924 45.2393 104.513 45.1885C103.942 45.1191 103.375 45.0265 102.804 44.9588C101.021 44.7461 99.7059 43.6421 98.3411 42.6316C98.2458 42.5613 98.155 42.4847 98.058 42.418C97.4544 42.0013 97.0697 41.4894 97.3297 40.7015C97.327 40.7015 97.3724 40.6908 97.3778 40.6997C97.6262 41.1911 98.1737 41.2214 98.5797 41.4653C98.9136 41.6666 99.1068 41.8802 98.9243 42.2933C99.2697 42.4678 99.5964 42.6325 99.917 42.7946C100.525 42.2346 100.808 42.2871 101.597 42.823C101.846 42.9922 102.284 42.8827 102.721 42.9049C102.453 42.0885 103.007 41.8811 103.563 41.7663C103.748 41.728 103.991 41.9701 104.323 42.1446C104.484 41.9657 104.739 41.7209 104.941 41.4386C105.004 41.3505 104.976 41.1297 104.905 41.0264C104.736 40.778 104.669 40.5679 104.912 40.3329C105.16 40.0916 105.248 39.577 105.786 39.8432C105.859 39.8789 105.959 39.8584 106.088 39.8655H106.087Z" fill="white"/>
</svg>
