<svg width="41" height="44" viewBox="0 0 41 44" fill="none" xmlns="http://www.w3.org/2000/svg">
<path d="M37.8909 6.85176C37.1303 6.87016 36.3799 6.74646 35.6214 6.75771C35.3556 6.7618 35.0632 6.77304 34.777 6.81802C34.9242 7.12062 34.777 7.57554 34.3384 7.57554C34.2577 7.57554 34.1861 7.5602 34.1248 7.5326C34.1912 7.93845 34.1462 8.3811 33.9469 8.86464C33.7884 9.24902 33.2527 9.40441 33.0125 8.98629C32.6475 8.35248 32.4032 7.57758 32.7436 6.91616C32.6762 6.83642 32.6005 6.75668 32.5147 6.67797C31.8583 6.07277 31.0334 5.69555 30.2401 5.30912C29.5061 4.95235 28.8211 4.54343 28.0217 4.34204C27.4175 4.18972 26.796 4.14269 26.1754 4.11305C26.0937 4.20301 25.971 4.25719 25.8074 4.24594C24.7115 4.16927 23.6095 4.22243 22.6547 4.81945C21.7265 5.40011 21.0211 6.31915 20.3167 7.14004C20.0795 7.41708 19.5244 7.28521 19.4621 6.91412C19.0736 4.57717 18.2772 2.33324 17.8694 0.00038147H17.7886C17.7538 0.158836 17.6434 0.298891 17.438 0.353072C16.2705 0.660781 15.0765 0.389874 13.9059 0.609666C12.8152 0.815146 11.7326 1.32118 10.7716 1.86197C10.0816 2.25146 9.35779 2.58064 8.68001 2.99364C8.50418 3.10098 8.32425 3.21548 8.15148 3.3402C8.15864 3.35655 8.1658 3.37393 8.17193 3.39131C8.44795 4.21017 7.9961 4.96768 7.60661 5.71906C7.77733 5.82231 7.88569 6.0145 7.808 6.26394C7.49518 7.26578 7.03413 8.24718 6.84705 9.2756C6.8266 9.64669 6.81127 10.0168 6.79491 10.3858C6.86954 10.5535 6.82967 10.7129 6.72948 10.8315C6.53832 11.2241 5.91983 11.1699 5.78591 10.7119C5.6203 10.4972 5.42096 10.301 5.22468 10.1169C4.9824 9.88897 4.69616 9.74688 4.44467 9.5506C4.40276 9.58842 4.3496 9.62829 4.31484 9.661C4.18399 9.78675 4.06745 9.92987 3.95091 10.0689C3.74543 10.3153 3.52564 10.5565 3.33242 10.8111C2.70678 11.635 2.23346 12.6522 1.77752 13.5764C1.69369 13.745 1.61498 13.9158 1.53729 14.0875C1.82046 14.1734 2.05558 14.4944 1.87975 14.8389C1.74276 15.1067 1.53933 15.3439 1.33487 15.5801C1.34611 15.6424 1.34713 15.7109 1.33384 15.7835C1.14983 16.7455 0.999557 17.7085 0.912663 18.6786C1.07112 18.6745 1.23059 18.7461 1.33384 18.927C2.33773 20.6854 2.19973 22.5347 2.12408 24.4791C2.10977 24.8369 2.10465 25.1957 2.10772 25.5525C2.27946 25.6199 2.42259 25.7692 2.44405 25.9992C2.66998 28.3689 2.78857 30.805 3.60742 33.0642C3.79756 33.5887 4.06438 34.0732 4.27804 34.5864C4.48761 35.0874 4.643 35.6067 4.80247 36.125C4.87914 36.3765 4.95786 36.6259 5.04475 36.8692C5.18481 36.8815 5.32179 36.953 5.41789 37.1074C6.1202 38.237 7.19769 39.2 8.16069 40.1088C9.10733 41.0023 10.2615 41.7332 11.523 42.087C11.7142 42.1401 11.8225 42.2679 11.8634 42.4141C11.8685 42.4172 11.8736 42.4202 11.8787 42.4243C12.2345 42.683 12.5535 42.8792 12.9879 42.9733C13.4807 43.0796 13.9847 43.1256 14.4835 43.1839C15.3964 43.2902 16.2879 43.558 17.2049 43.6061C18.1679 43.6572 19.1237 43.8433 20.0836 43.6674C20.9618 43.5069 21.8021 43.1829 22.6537 42.9171C22.7262 42.7698 22.8714 42.6656 23.0902 42.6789C23.7025 42.7177 24.2719 42.5071 24.8362 42.2914C25.4496 42.0573 26.062 41.8201 26.6621 41.5543C27.8346 41.035 28.9612 40.4533 29.9109 39.5834C30.8739 38.7001 31.9217 37.9334 32.7968 36.9571C33.1045 36.6136 33.402 36.2834 33.6514 35.9001C33.5502 35.7917 33.5053 35.6353 33.5737 35.4462C33.9336 34.4494 34.4243 33.5059 34.7443 32.4938C34.7995 32.321 34.914 32.2168 35.0479 32.1687C35.1276 31.5267 35.191 30.8827 35.2861 30.257C35.5406 28.5784 36.0252 26.9438 36.2583 25.2591C36.3728 24.431 36.4086 23.5979 36.5854 22.779C36.752 22.0102 36.9943 21.2609 37.2284 20.5105C37.6792 19.064 38.0718 17.5735 37.9307 16.0442C37.8663 15.35 37.6476 14.708 37.3429 14.1039C36.8829 13.6009 36.4157 13.1082 36.292 12.4007C36.2859 12.367 36.2838 12.3343 36.2828 12.3026C36.155 12.1973 36.0978 12.045 36.0968 11.8937C35.6991 11.91 35.3331 11.3866 35.696 11.0186C36.8839 9.8123 38.4 8.99447 39.6604 7.87916C39.5419 7.66141 39.5674 7.38232 39.8567 7.24534C39.8966 7.22591 39.9365 7.20854 39.9763 7.19116C39.3118 6.85994 38.676 6.83131 37.8939 6.84971L37.8909 6.85176Z" fill="#4C4C4C"/>
<path d="M39.6554 6.31685C39.1923 5.61965 38.6985 5.64725 38.0811 6.08888C37.7733 6.30969 37.4237 6.50392 37.0639 6.61229C36.7889 6.69509 36.4198 6.72372 36.1765 6.60411C35.1134 6.08172 34.8465 6.14612 34.1524 7.09378C33.8917 7.44852 33.5063 7.71227 33.0095 8.17536C32.9257 7.59471 32.9543 7.2962 32.8377 7.07436C32.4789 6.39352 32.2233 5.50617 31.6458 5.11668C28.5206 3.00974 25.2309 3.07313 21.931 4.74048C21.5343 4.94085 21.2481 5.35283 20.9005 5.65645C20.5703 5.94575 20.2268 6.22075 19.7698 6.60104C19.6328 6.11954 19.5255 5.8425 19.4775 5.55626C19.2055 3.939 18.9336 2.32072 18.6923 0.699373C18.6198 0.209697 18.4398 -0.00600667 17.9103 0.000127059C14.8536 0.0338626 11.9432 0.597144 9.24538 2.12546C8.28954 2.66626 7.68741 3.33483 7.61176 4.4665C7.56985 5.08908 7.40219 5.70347 7.28361 6.32093C7.01781 7.70307 6.74793 9.0852 6.42795 10.7362C5.72666 10.0502 5.20427 9.54012 4.71562 9.06271C1.64978 12.2369 0.332049 15.9642 1.01698 20.2772C1.6416 24.2161 2.36232 28.1407 3.13517 32.0529C3.5952 34.3776 4.44063 36.5193 6.04766 38.3359L6.54245 37.6367C6.01699 37.0141 5.56003 36.0981 5.14191 35.3519C4.72584 34.6107 4.55001 33.7091 4.38542 32.8575C3.67084 29.1558 2.87039 25.4623 2.36436 21.7299C2.06994 19.5585 2.20488 17.3156 2.29689 15.1116C2.32858 14.3551 2.81314 13.617 3.09018 12.8697C3.23126 12.8912 3.37335 12.9137 3.51443 12.9351C3.77205 13.8583 4.03069 14.7824 4.2883 15.7055C4.37315 15.6974 4.458 15.6882 4.54285 15.68C4.49072 14.8662 4.41916 14.0535 4.3936 13.2388C4.36804 12.425 4.38747 11.6092 4.38747 10.5859C6.62015 12.1459 7.11288 14.2846 7.42979 16.5162C7.51158 16.4999 7.59336 16.4835 7.67514 16.4661C7.71501 16.1952 7.83053 15.91 7.78351 15.6565C7.13026 12.1817 7.8336 8.79794 8.47049 5.41417C8.60441 4.7047 8.68619 3.75295 9.15849 3.39003C10.147 2.63047 11.3799 2.18987 12.6874 1.52947C12.7815 3.96252 12.8653 6.12363 12.9491 8.28373C13.036 8.28986 13.1229 8.29497 13.2098 8.30111C13.2487 8.03531 13.31 7.77156 13.3233 7.50474C13.403 5.89362 13.4705 4.28147 13.5441 2.66932C13.5513 2.50576 13.5267 2.31766 13.5983 2.18476C13.7342 1.93225 13.9285 1.71042 14.0982 1.47529C14.2321 1.71144 14.4713 1.94248 14.4826 2.18476C14.5286 3.13957 14.4999 4.09848 14.505 5.05534C14.5296 8.88586 14.6247 12.7102 15.3505 16.4886C15.375 16.6184 15.42 16.7442 15.6347 16.8853C15.6531 16.6512 15.6756 16.4171 15.6899 16.1829C15.7062 15.9202 15.7165 15.6575 15.739 15.1699C17.0413 16.3383 17.0833 17.8472 17.5351 19.1609C17.6046 19.1578 17.6752 19.1558 17.7447 19.1527C17.7447 18.7019 17.8663 18.2061 17.7212 17.8074C17.3419 16.7646 16.932 15.7147 16.3758 14.7599C15.7093 13.6139 15.3454 12.4506 15.327 11.1165C15.2851 8.10892 15.1419 5.10339 15.0724 2.09582C15.0653 1.79629 15.236 1.26572 15.4057 1.22994C16.0283 1.09806 16.6856 1.11647 17.3286 1.12362C17.3869 1.12362 17.4584 1.45178 17.4963 1.63374C18.0176 4.12302 18.5329 6.61331 19.0512 9.10258C19.1053 9.36429 19.1728 9.62293 19.2526 9.95926C20.052 9.61679 20.3842 8.95946 20.6071 8.27351C21.4116 5.80161 23.3008 4.96947 25.9506 4.66483C26.0508 4.65358 26.1571 4.69856 26.197 4.70674C25.7666 8.434 25.3403 12.1255 24.914 15.817C25.0356 15.8435 25.1573 15.8701 25.28 15.8967C25.4118 15.4561 25.5836 15.0227 25.6684 14.5728C26.2358 11.5387 26.793 8.5025 27.3317 5.46323C27.4329 4.89075 27.6517 4.65665 28.264 4.79364C29.2965 5.02365 30.2248 5.42848 31.0876 6.16452C30.1481 7.35242 29.2434 8.49739 28.3387 9.64133C28.3939 9.70573 28.4501 9.77013 28.5053 9.83454C29.1575 9.68937 29.5705 9.17619 29.9948 8.67935C30.4159 8.18559 30.8371 7.69285 31.2583 7.19908C31.3585 7.2001 31.4577 7.20215 31.5578 7.20317C32.255 9.4706 32.9522 11.7391 33.6883 14.1312C34.1657 13.8634 34.5511 13.6303 34.9518 13.4269C35.5488 13.1243 35.8862 13.3032 35.787 13.9656C35.7053 14.5084 35.419 15.0308 35.1716 15.5358C34.9089 16.0725 34.549 16.5622 34.3068 17.1061C34.2025 17.3392 34.2894 17.6571 34.4356 17.9556C35.1226 16.8577 35.8095 15.7607 36.4822 14.6843C37.0363 15.2435 37.1467 15.8139 36.6294 16.4917C35.7594 17.6336 35.2708 18.9145 35.0622 20.315C35.0173 20.6187 35.0561 20.9345 35.144 21.2678C35.7421 19.946 36.1223 18.5281 37.3665 17.5089C37.3665 17.7706 37.4319 18.0527 37.3573 18.2909C35.9557 22.7307 35.005 27.2686 34.1759 31.8485C33.7118 34.4124 32.6905 36.5479 30.968 38.1141L31.6938 38.5557C31.9668 38.3554 32.1702 38.1437 32.3511 37.9362C33.674 36.4232 34.5685 34.6853 35.0244 32.7369C35.3229 31.4621 35.4875 30.1556 35.7952 28.8828C36.5251 25.8589 37.2765 22.8401 38.0729 19.8346C38.5697 17.9607 38.5288 16.1523 37.6732 14.4011C37.254 13.5434 36.8001 12.698 36.2982 11.8873C36.0242 11.4446 35.9629 11.14 36.4014 10.7791C37.4329 9.92961 38.4491 9.06169 39.454 8.1815C40.142 7.57937 40.1543 7.07947 39.6513 6.32093L39.6554 6.31685ZM38.3039 7.94126C37.1385 9.00137 35.9496 10.0359 34.7678 11.0787C34.6451 11.187 34.5306 11.3353 34.3865 11.3782C34.1534 11.4487 33.8989 11.4477 33.6535 11.4774C33.6648 11.2228 33.6177 10.9488 33.6975 10.7178C33.9571 9.95926 34.2495 9.21094 34.5582 8.47081C34.685 8.16514 34.8844 7.89015 35.05 7.60084C35.2626 7.81961 35.4763 8.03838 35.6869 8.25919C35.7421 8.31746 35.787 8.38391 35.9077 8.53521C36.8594 7.93206 37.7437 7.37185 38.629 6.81061C38.721 6.91591 38.813 7.02018 38.904 7.12548C38.7067 7.40047 38.5493 7.71943 38.3039 7.94126Z" fill="#272727"/>
<path d="M6.51385 37.602L5.84629 38.0702C5.84629 38.0702 14.7014 51.1432 31.8155 38.4678L31.3166 37.8156C31.3166 37.8156 16.9759 50.173 6.51385 37.602Z" fill="#272727"/>
<path d="M24.2914 27.235C24.2934 24.8868 26.5598 22.6173 28.8958 22.6245C31.2501 22.6326 33.3192 24.6353 33.3355 26.9232C33.3529 29.4135 31.2215 31.5766 28.7475 31.5797C26.3145 31.5817 24.2903 29.6087 24.2914 27.235ZM28.8702 26.2025C28.8763 25.4276 28.2681 24.7477 27.5709 24.7498C26.8215 24.7518 26.1018 25.4501 26.108 26.1687C26.1141 26.8751 26.799 27.5243 27.53 27.5171C28.2619 27.51 28.8651 26.9191 28.8712 26.2025H28.8702ZM29.4243 28.2838C29.1176 28.7541 28.769 29.0567 28.8181 29.2703C28.8835 29.5597 29.2525 29.7794 29.4907 30.0299C29.731 29.7794 30.1419 29.5423 30.1634 29.2744C30.1838 29.026 29.7892 28.7439 29.4243 28.2838Z" fill="#272727"/>
<path d="M14.9292 27.6836C14.9302 29.8417 12.6668 31.9128 10.3013 31.9169C7.95512 31.921 6.02504 29.9735 6.03628 27.6131C6.04855 25.2127 8.11153 23.1334 10.4853 23.1273C12.9122 23.1211 14.9261 25.1882 14.9282 27.6836H14.9292ZM10.4597 26.5182C10.4689 25.7075 9.98232 25.1207 9.27796 25.0942C8.55214 25.0666 7.78645 25.8128 7.76702 26.5673C7.74964 27.2318 8.32928 27.749 9.08679 27.7449C9.89849 27.7409 10.4505 27.2471 10.4597 26.5182ZM12.1782 30.0114C12.1843 29.902 12.1894 29.7926 12.1956 29.6832C11.9196 29.489 11.6292 29.1261 11.3716 29.1475C11.0925 29.171 10.8441 29.5534 10.5814 29.7793C10.8421 30.0103 11.0751 30.3661 11.3726 30.4315C11.5986 30.4816 11.9073 30.1647 12.1782 30.0114Z" fill="#272727"/>
</svg>
