<svg width="154" height="100" viewBox="0 0 154 100" fill="none" xmlns="http://www.w3.org/2000/svg">
<rect width="154" height="100" rx="6" fill="#1D1D1D"/>
<path d="M116 50.003C116.081 71.353 98.5087 89.5167 75.9615 88.9888C55.3241 88.5062 37.4503 71.3984 38.0129 48.851C38.524 28.3627 55.5218 10.4537 78.1134 11.0128C98.8781 11.5256 116.013 28.5666 116 50.003ZM112.155 49.7403C111.97 40.119 108.49 31.5847 101.311 24.7036C94.1444 17.8342 85.5128 14.5517 75.5903 14.9345C66.0301 15.3031 57.906 19.0565 51.3836 26.0284C44.7099 33.1623 41.5332 41.7126 41.941 51.488C42.3381 61.0159 46.0827 69.1122 53.0334 75.614C60.1532 82.2733 68.6877 85.449 78.4411 85.059C88.0012 84.6771 96.1093 80.9103 102.646 73.9518C108.936 67.255 112.005 59.2041 112.156 49.7403H112.155Z" fill="white"/>
<path d="M71.9284 55.7703C71.5349 55.6955 71.3043 55.6572 71.0773 55.6056C71.0096 55.5905 70.95 55.5379 70.8565 55.4854C71.0426 54.8916 71.2189 54.3022 71.4183 53.7209C71.4503 53.6283 71.5768 53.557 71.6747 53.5001C72.0656 53.273 72.4617 53.0558 72.9042 52.8074C72.9042 53.3167 72.8962 53.7574 72.9113 54.1972C72.914 54.28 73.012 54.3601 73.0663 54.4411C73.1134 54.3645 73.198 54.2898 73.2007 54.2114C73.2149 53.8117 73.2185 53.4101 73.2043 53.0104C73.1962 52.7745 73.2532 52.632 73.5016 52.5466C73.8889 52.4148 74.2593 52.2359 74.6849 52.0569V53.9043C74.838 53.9141 74.96 53.9221 75.13 53.9327C75.13 53.3977 75.1683 52.8929 75.1184 52.3979C75.0739 51.9616 75.2529 51.7952 75.6419 51.7124C76.0265 51.6305 76.4023 51.504 76.826 51.3839V53.5392H77.232V51.3723C77.7894 51.5432 78.2951 51.6839 78.7856 51.8646C78.8711 51.8958 78.9361 52.0952 78.9396 52.2189C78.9566 52.7665 78.9468 53.3149 78.9468 53.8802C79.2023 53.9879 79.3323 53.9506 79.326 53.6434C79.3154 53.1261 79.3234 52.608 79.3234 52.0302C79.7641 52.2225 80.1718 52.3854 80.5618 52.5822C80.6482 52.6258 80.7105 52.7852 80.722 52.8965C80.7719 53.395 80.7995 53.8954 80.8351 54.3984C81.2322 54.5355 81.1823 54.2817 81.1663 54.0609C81.136 53.6568 81.1049 53.2535 81.0666 52.7602C81.5919 53.054 82.0335 53.2864 82.4564 53.5473C82.5677 53.6158 82.6522 53.7636 82.6985 53.8927C82.8428 54.2951 82.9318 54.7198 83.1001 55.1106C83.2835 55.5379 83.0529 55.635 82.7226 55.6866C82.581 55.7089 82.435 55.7053 82.2961 55.7133C82.1911 56.0962 82.4537 56.2341 82.6781 56.2885C83.4046 56.463 84.1382 56.6134 84.8771 56.7229C85.284 56.7835 85.706 56.7336 86.1209 56.7505C86.5251 56.7665 86.8376 56.9526 86.9756 57.3435C87.3424 58.3869 87.7056 59.4321 88.044 60.4853C88.1704 60.8779 88.0395 61.1806 87.6398 61.3978C86.826 61.8394 86.6337 62.3255 86.8474 63.2425C87.1643 64.6055 87.5392 65.957 87.7929 67.3316C87.9879 68.3875 88.0653 69.4683 88.1374 70.5411C88.1909 71.3326 88.2016 72.1338 88.141 72.9244C88.0155 74.5643 87.1857 75.882 86.0826 77.0402C84.4516 78.7531 82.4136 79.8215 80.1433 80.2853C78.7464 80.5711 77.2587 80.475 75.8147 80.4456C74.911 80.4269 73.9815 80.3165 73.117 80.0654C71.0132 79.4529 69.1542 78.3935 67.6826 76.7224C66.3435 75.2035 65.7728 73.4532 65.8485 71.4234C65.9482 68.7196 66.3969 66.087 67.1493 63.4971C67.4555 62.4439 67.2988 61.7593 66.3204 61.3186C65.974 61.1628 65.8832 60.8494 66.0008 60.496C66.3435 59.4606 66.6872 58.426 67.046 57.396C67.216 56.909 67.6167 56.7487 68.0983 56.7336C68.7189 56.7149 69.3465 56.7416 69.9582 56.6588C70.4763 56.5885 70.9838 56.4086 71.4797 56.2324C71.6355 56.1772 71.7379 55.9742 71.9293 55.7721L71.9284 55.7703ZM83.1348 64.8246L83.1829 64.7044C83.7589 64.6919 84.2717 64.5299 84.7311 64.1551C85.2956 63.6939 85.1255 63.0698 85.2074 62.4822C85.3223 61.6676 84.9501 61.2135 84.2762 60.8939C83.5185 60.5342 82.7867 60.0909 81.8848 60.4096C80.8333 60.7809 79.8451 61.2661 78.9672 61.9596C78.5684 62.2748 78.5648 62.4733 78.9797 62.7404C79.675 63.1891 80.3597 63.6654 81.0951 64.0384C81.7415 64.3661 82.4519 64.5673 83.1339 64.8246H83.1348ZM68.799 62.4243C68.799 63.9049 69.1694 64.4667 70.3054 64.6483C70.755 64.7204 71.2954 64.7159 71.6916 64.5281C72.8196 63.993 73.9023 63.3591 74.9858 62.735C75.4211 62.4849 75.43 62.2445 75.0063 61.9738C74.2878 61.5153 73.5381 61.1031 72.7965 60.682C71.8109 60.122 70.8538 60.2591 69.8923 60.7791C69.1676 61.1708 68.4972 61.5634 68.799 62.4252V62.4243ZM76.9605 61.3676C77.0967 61.2456 77.1572 61.2144 77.1822 61.1655C77.7217 60.1176 78.2621 59.0706 78.7865 58.0156C78.8613 57.8661 78.8853 57.6693 78.8693 57.501C78.8328 57.1253 78.645 56.8467 78.2701 56.7051C77.906 56.568 77.7484 56.7826 77.5525 57.0327C77.2107 57.4681 76.7308 57.404 76.3266 56.9063C76.0355 56.5475 75.7087 56.5297 75.4354 56.8939C75.211 57.193 75.057 57.5135 75.2591 57.9159C75.471 58.337 75.609 58.7946 75.82 59.2166C76.1743 59.9244 76.5607 60.6162 76.9614 61.3676H76.9605Z" fill="white"/>
<path d="M94.6359 52.7674C94.5068 52.9686 94.3875 53.1537 94.2557 53.3585C93.9245 53.3042 93.5906 53.2517 93.2577 53.1938C92.9487 53.1395 92.6051 53.1626 92.6077 52.665C92.6077 52.5492 92.2819 52.4237 92.0976 52.316C91.7317 52.1014 91.3675 51.9892 91.0434 52.3925C91.0256 52.4148 91.0007 52.4362 90.9749 52.4477C90.7007 52.5733 89.4355 51.837 89.4765 51.5379C89.5379 51.0838 89.2753 50.8986 88.9566 50.7161C88.726 50.5844 88.4998 50.4455 88.2692 50.3075C88.214 50.3413 88.1624 50.3698 88.1134 50.4027C87.8748 50.5666 87.581 50.9129 87.4092 50.8604C86.9863 50.7313 86.6106 50.4312 86.2376 50.1695C86.1601 50.1152 86.1539 49.9309 86.1485 49.8054C86.1111 48.9453 85.8289 48.794 85.0882 49.2685C84.2032 49.8347 83.2799 50.3564 82.4653 51.0117C81.6979 51.6296 81.0275 51.7497 80.1826 51.1951C79.6706 50.8595 79.0536 50.6876 78.4963 50.4161C78.3859 50.3618 78.2728 50.1909 78.2657 50.0671C78.1963 48.8928 78.2034 48.8937 79.2887 48.3836C81.161 47.5031 83.0378 46.6324 84.9003 45.7323C85.9331 45.2328 86.9436 45.2524 87.9799 45.6976C90.2039 46.652 92.427 47.6081 94.6617 48.5358C95.6001 48.9258 96.5652 49.2507 97.5214 49.5953C98.1081 49.8063 98.7064 49.8294 99.3091 49.6549C100.629 49.2739 101.98 48.9373 103.071 48.0488C104.289 47.0561 105.288 45.8703 105.864 44.3817C105.963 44.1271 106.217 43.8422 105.83 43.5707C105.755 43.5181 105.797 43.2902 105.795 43.1424C105.791 42.846 105.812 42.5477 105.789 42.2521C105.767 41.9735 105.871 41.8212 106.123 41.7064C106.237 41.6548 106.381 41.4767 106.368 41.3716C106.313 40.8758 106.209 40.3861 106.114 39.8466C105.079 40.2766 105.068 39.3195 104.72 38.8512C104.363 38.3705 105.071 38.2663 105.086 37.7419C104.795 37.4107 104.402 36.9629 103.974 36.4759C103.731 36.7083 103.543 36.8881 103.341 37.0796C103.168 37.0119 102.996 36.9264 102.814 36.8775C102.187 36.7074 101.75 36.4207 101.922 35.656C101.944 35.5616 101.789 35.3488 101.68 35.3195C101.262 35.2055 100.83 35.1432 100.386 35.0577C100.324 35.4236 100.278 35.6943 100.231 35.9756C99.8041 36.0495 99.4017 36.1448 98.9948 36.1741C98.8515 36.1848 98.6707 36.062 98.5541 35.9507C98.4419 35.8438 98.3769 35.6782 98.3146 35.5296C98.2194 35.3017 98.0983 35.2625 97.8659 35.3658C97.492 35.5322 97.0985 35.6542 96.6488 35.818C97.1982 36.5632 96.7201 36.954 96.193 37.3315C96.0497 37.4339 95.9197 37.5541 95.7621 37.6832C95.5315 37.5443 95.2947 37.4018 95.0044 37.2273C94.7445 37.6333 94.4863 38.0357 94.2308 38.4346C94.8273 39.0925 94.1702 39.6659 94.1845 40.3086H93.3761C93.3511 40.8357 93.328 41.3316 93.3031 41.8622C93.5292 41.9005 93.7527 41.9388 94.0376 41.9868C94.0376 42.4596 94.0393 42.9314 94.0358 43.4024C94.0358 43.4754 94.042 43.5787 94.0002 43.6161C93.6218 43.949 93.7776 44.3319 93.831 44.7681C93.6859 44.6248 93.4954 44.5055 93.4046 44.3336C92.9523 43.4745 92.4475 42.6287 92.1243 41.7197C91.9694 41.2835 92.0566 40.6728 92.2356 40.2196C93.0903 38.0526 94.002 35.9079 94.9199 33.7668C95.292 32.8988 95.7176 32.0539 96.1512 31.2143C96.2349 31.0532 96.4539 30.9001 96.6355 30.8618C98.3663 30.4985 100.101 30.1451 101.841 29.8317C102.089 29.7872 102.479 29.8842 102.633 30.0623C104.133 31.8117 105.753 33.4685 106.937 35.4708C107.804 36.938 108.307 38.5432 108.679 40.1876C109.097 42.0349 109.336 43.9125 109.281 45.8106C109.234 47.4051 109.024 48.9792 108.575 50.522C108.06 52.2964 106.874 53.2009 105.082 53.3656C103.628 53.4992 102.172 53.6826 100.716 53.6968C98.6912 53.7164 96.6773 53.5205 94.7569 52.7852C94.7302 52.7754 94.7 52.7754 94.6332 52.7638L94.6359 52.7674Z" fill="white"/>
<path d="M65.7381 50.3048C65.479 50.4642 65.2342 50.6306 64.9733 50.7686C64.6724 50.9271 64.4961 51.1194 64.5299 51.4987C64.5415 51.6349 64.3786 51.8183 64.2495 51.926C64.0946 52.0551 63.8729 52.1041 63.7117 52.2278C63.3422 52.5109 63.0128 52.535 62.6674 52.1851C62.6015 52.1183 62.4208 52.1139 62.3157 52.1486C62.0646 52.2314 61.8252 52.3498 61.5857 52.4646C61.51 52.5011 61.3916 52.5741 61.3942 52.6249C61.4263 53.2223 60.9713 53.143 60.6143 53.2045C60.3383 53.2525 60.0632 53.3069 59.7659 53.3629C59.6368 53.1671 59.5086 52.9739 59.4035 52.8145C58.4527 53.0353 57.5303 53.2908 56.5928 53.4591C54.9288 53.7573 53.2417 53.7582 51.5652 53.622C50.3054 53.5196 49.0421 53.3585 47.8036 53.1074C46.7655 52.8973 46.0942 52.1539 45.682 51.1889C45.2066 50.0778 44.976 48.9008 44.8834 47.7105C44.7873 46.4766 44.708 45.2266 44.7926 43.9962C45.0802 39.8305 46.1299 35.9346 49.0474 32.7483C49.8157 31.9087 50.5342 31.0238 51.2696 30.154C51.5225 29.8548 51.8065 29.7498 52.2062 29.8308C53.9539 30.1869 55.7069 30.5128 57.4546 30.868C57.5997 30.8974 57.776 31.0318 57.841 31.1654C59.2673 34.0811 60.6402 37.0217 61.7593 40.0736C62.0415 40.8419 62.094 41.5933 61.6774 42.3394C61.3186 42.9822 60.9936 43.6445 60.6321 44.2864C60.5289 44.4698 60.3517 44.6123 60.1549 44.8331C60.1781 44.4645 60.3072 44.1191 60.1879 43.9339C59.9368 43.5439 59.9724 43.1522 59.9742 42.7462C59.9742 42.4961 60.0018 42.2468 60.0187 41.9788C60.2404 41.9441 60.455 41.9111 60.6651 41.8782V40.3193H59.862C59.7409 39.8688 59.5949 39.4504 59.529 39.0195C59.5023 38.8423 59.6483 38.6393 59.7392 38.3803C59.5371 38.0589 59.2869 37.6609 59.0162 37.2309C58.7482 37.3885 58.4998 37.5336 58.2408 37.6858C57.9808 37.4615 57.7449 37.2077 57.4626 37.0279C57.0914 36.7911 57.0246 36.5231 57.2276 36.1501C57.2739 36.0646 57.2721 35.9524 57.3006 35.81C56.883 35.648 56.4673 35.4663 56.0355 35.3355C55.9491 35.3096 55.7612 35.4494 55.6927 35.5589C55.2831 36.2124 55.2903 36.2177 54.5095 36.1038C54.2905 36.0717 54.0732 36.0317 53.8088 35.9881C53.7767 35.8759 53.7251 35.7414 53.7011 35.6026C53.6761 35.4601 53.677 35.3132 53.6646 35.1387C53.3921 35.1387 53.1402 35.112 52.8962 35.1441C52.1697 35.2393 52.0549 35.3595 52.0825 36.0869C52.0958 36.4279 51.9819 36.5881 51.664 36.6851C51.3284 36.7875 51.0097 36.9478 50.6295 37.1045C50.4835 36.914 50.3303 36.7145 50.1104 36.4279C49.6368 36.946 49.2299 37.3911 48.8346 37.8229C49.4872 38.7186 49.5068 38.7319 48.7607 39.7513C48.637 39.9196 48.2648 39.9053 48.0075 39.9757C47.9701 39.9347 47.9336 39.8938 47.8962 39.8528C47.8072 40.395 47.7093 40.9363 47.6416 41.4811C47.6336 41.5479 47.7707 41.6761 47.8624 41.7028C48.19 41.7981 48.239 42.0215 48.223 42.3171C48.2052 42.6421 48.2203 42.9697 48.2176 43.2964C48.2176 43.3855 48.2426 43.5208 48.1963 43.5546C47.7778 43.8644 48.0556 44.1983 48.1865 44.4823C49.3029 46.9181 51.0542 48.6489 53.6984 49.3664C54.0251 49.4555 54.351 49.5472 54.6751 49.646C55.3392 49.849 55.9856 49.784 56.6284 49.5489C59.7463 48.4103 62.8472 47.2288 65.8396 45.7812C66.9525 45.2426 68.0529 45.2097 69.2005 45.7768C71.2535 46.7908 73.3387 47.7425 75.4166 48.7041C75.6891 48.8305 75.7683 48.9827 75.7639 49.2747C75.7469 50.3431 75.7576 50.3395 74.7881 50.7597C74.1916 51.0179 73.5933 51.2725 73.0128 51.5637C72.7502 51.6954 72.5605 51.6696 72.3282 51.5138C71.2838 50.8123 70.2306 50.1258 69.18 49.4341C69.0563 49.3531 68.9361 49.2658 68.8061 49.1973C68.1392 48.8429 67.8855 48.9774 67.8766 49.7234C67.873 50.0226 67.7902 50.198 67.5231 50.3582C66.6079 50.9084 66.6159 50.9218 65.7425 50.3039L65.7381 50.3048Z" fill="white"/>
<path d="M72.2685 35.9248C72.6825 35.5162 72.776 35.1431 72.8597 34.7087C72.9398 34.2911 73.3645 33.9395 73.6387 33.5602C73.6458 33.5504 73.6681 33.5415 73.6797 33.5451C74.6038 33.8255 74.3696 32.8408 74.9003 32.539C73.7571 32.0841 74.4266 31.3817 74.537 30.7718C74.5611 30.6365 74.7578 30.5323 74.9635 30.324V29.1266C74.0269 29.4177 73.8452 28.7491 73.5871 28.1188C73.3707 27.5899 73.9752 27.557 74.0411 27.1394C73.7678 26.7993 73.4491 26.4005 73.1107 25.9794C72.8401 26.1735 72.5899 26.3533 72.3219 26.5456C71.9961 26.315 71.6569 26.1022 71.355 25.8458C71.2616 25.7657 71.2366 25.5672 71.2375 25.423C71.2384 25.2387 71.2981 25.0553 71.3355 24.8505C70.8413 24.7241 70.3891 24.6075 69.9866 24.5042C69.6367 24.7624 69.797 25.4612 69.2504 25.3651C68.6663 25.2627 67.7066 25.7755 67.7066 24.5247C67.1466 24.7535 66.6613 24.9511 66.193 25.1416C66.1209 25.4773 66.6052 25.8726 66.0773 26.088C65.5778 26.2919 65.2155 27.175 64.4988 26.4085C64.2299 26.7735 63.9361 27.0967 63.742 27.4715C63.6565 27.6362 63.7749 27.9069 63.8159 28.2559C63.6512 28.5488 63.4126 28.9725 63.1731 29.3963C63.1437 29.448 63.1206 29.5352 63.0805 29.5441C62.4582 29.6785 62.6683 30.2154 62.622 30.5768C62.3825 32.4313 63.0467 34.0294 64.1133 35.4975C64.8104 36.4563 65.5502 37.3671 66.5581 38.0348C67.411 38.6001 68.3796 38.7666 69.3483 38.9554C70.8387 39.2465 72.3282 39.5403 73.815 39.8465C73.9717 39.8786 74.1444 39.9739 74.2495 40.0923C74.9537 40.8909 75.6472 41.6983 76.3274 42.5165C76.4405 42.6518 76.5331 42.8522 76.5349 43.024C76.5509 44.5669 76.5447 46.1097 76.5438 47.6535C76.5438 47.6953 76.5242 47.7363 76.5002 47.836C75.9001 47.6072 75.3063 47.3989 74.7311 47.1469C74.5931 47.0864 74.5121 46.8834 74.4186 46.7374C73.8328 45.8213 73.1811 44.9702 72.2293 44.3915C71.924 44.2063 71.6747 44.1253 71.4432 44.4769C71.2384 44.7894 70.9758 44.8241 70.6642 44.6283C70.5395 44.5499 70.4042 44.4805 70.2653 44.4351C69.7454 44.2677 69.367 44.0122 69.5246 43.373C69.5379 43.3178 69.5335 43.2501 69.513 43.1976C69.4257 42.975 68.1001 42.5744 67.9336 42.7364C67.6033 43.0569 67.2587 43.1103 66.8572 42.8931C66.7557 42.8379 66.6337 42.8201 66.5216 42.7836C65.9921 42.6091 65.758 42.2263 65.8191 41.6351C65.276 41.5675 64.9047 40.8196 64.1907 41.2585C63.7945 41.0369 63.5461 40.7083 63.4482 40.2169C63.3841 39.8973 63.1909 39.5946 63.0173 39.307C61.2954 36.4563 60.1051 33.3786 59.1079 30.2172C59.1035 30.2029 59.1053 30.186 59.099 30.1735C58.4464 28.9191 58.8471 27.8802 59.7231 26.9035C61.5216 24.8977 63.2746 22.8411 65.4772 21.2573C66.372 20.6136 67.3709 20.1151 68.3298 19.564C68.4259 19.5088 68.5853 19.5168 68.7001 19.5497C70.5413 20.0848 72.3816 20.6234 74.2165 21.1772C74.3643 21.2217 74.5415 21.3508 74.5976 21.4852C75.1665 22.8607 75.7247 24.2407 76.258 25.6304C76.3604 25.8966 76.372 26.21 76.3728 26.502C76.3817 28.579 76.3711 30.657 76.3844 32.734C76.3871 33.0946 76.3087 33.3821 76.0666 33.6599C75.2626 34.5814 74.4453 35.4743 73.1935 35.7877C73.1223 35.8055 73.0511 35.8287 72.979 35.8385C72.792 35.8643 72.605 35.8848 72.2703 35.9248H72.2685Z" fill="white"/>
<path d="M89.8183 41.2684C89.6189 40.9942 89.3838 41.0716 89.1346 41.2301C88.9983 41.3173 88.8514 41.3975 88.6983 41.4464C88.319 41.5684 88.1517 41.8034 88.2345 42.2041C88.2914 42.4765 88.1534 42.6056 87.8988 42.6679C87.6549 42.7276 87.4029 42.7854 87.1821 42.8976C86.7877 43.0979 86.4645 43.0614 86.1458 42.7454C86.0692 42.6688 85.876 42.6519 85.7585 42.6857C85.405 42.7881 85.0507 42.9047 84.7231 43.0668C84.6127 43.1211 84.5076 43.341 84.5245 43.4683C84.5922 43.9642 84.4034 44.2348 83.9298 44.379C83.5942 44.4814 83.2817 44.6586 82.9674 44.7984C82.9131 44.7663 82.8686 44.7503 82.8374 44.7209C82.1981 44.1271 82.1456 44.0674 81.4904 44.6497C80.8458 45.2222 80.2795 45.8997 79.7623 46.5932C79.4738 46.9796 79.1871 47.2743 78.7233 47.4105C78.344 47.5218 77.9781 47.6802 77.5623 47.8334C77.5507 47.6696 77.5347 47.5458 77.5347 47.4221C77.5329 45.9834 77.5258 44.5438 77.5427 43.105C77.5454 42.9047 77.6184 42.6652 77.7439 42.513C78.4375 41.6672 79.1417 40.8295 79.8816 40.0238C80.0338 39.8573 80.3445 39.811 80.5929 39.762C82.3272 39.4139 84.0669 39.0907 85.8003 38.7364C87.0851 38.4738 88.0947 37.7446 88.9351 36.7671C89.9323 35.6079 90.8395 34.3953 91.2669 32.8881C91.5437 31.9114 91.5268 30.9348 91.3683 29.9492C91.3514 29.846 91.29 29.7382 91.2197 29.6572C91.0852 29.5005 90.9098 29.375 90.7896 29.2094C90.6516 29.0198 90.5733 28.7865 90.4362 28.5951C90.2065 28.2755 90.0943 27.9755 90.4816 27.6656C90.1762 27.2472 89.8842 26.8475 89.5503 26.3899C89.1132 26.9748 88.7553 26.6231 88.384 26.356C88.1686 26.2011 87.9451 26.0587 87.719 25.9073C87.7751 25.6563 87.8294 25.415 87.8908 25.1399C87.3985 24.9422 86.923 24.7517 86.3817 24.5336C86.3167 25.7195 85.3926 25.2877 84.7863 25.3634C84.269 25.4275 84.3963 24.7615 84.0829 24.4909C83.6476 24.6075 83.1864 24.7313 82.6522 24.8737C83.2443 25.7631 82.475 26.0097 81.9836 26.3774C81.4823 26.7522 81.3488 26.032 80.9045 26.0355C80.6232 26.3836 80.3027 26.7807 79.9376 27.2347C80.8324 27.6452 80.4184 28.2328 80.1834 28.8141C79.9715 29.3367 79.5014 29.0714 79.1239 29.1916V30.4131C79.7249 30.6908 79.6723 31.3078 79.8005 31.7797C79.8557 31.9844 79.5343 32.2907 79.3331 32.6379C79.4373 32.8338 79.5886 33.1507 79.7747 33.4454C79.829 33.5309 80.0124 33.6199 80.089 33.5896C80.389 33.4685 80.5181 33.6368 80.6597 33.8425C80.7941 34.0366 80.9535 34.2137 81.0968 34.4025C81.1592 34.4835 81.2731 34.5948 81.2535 34.658C81.0942 35.1654 81.4049 35.5073 81.7459 35.8928C80.2671 35.8599 79.3082 35.0737 78.3965 34.1487C77.8427 33.587 77.6789 32.97 77.7021 32.1999C77.751 30.5698 77.7733 28.9343 77.6994 27.3051C77.6389 25.9732 77.9896 24.7624 78.4891 23.5712C78.7749 22.891 79.0865 22.2197 79.4168 21.56C79.4978 21.398 79.6786 21.2288 79.8477 21.1772C81.6657 20.6208 83.49 20.0839 85.316 19.5551C85.454 19.515 85.6374 19.5311 85.7692 19.5889C87.5071 20.3537 89.0598 21.414 90.3881 22.7557C91.8643 24.2469 93.262 25.8156 94.6741 27.3692C95.3249 28.085 95.405 28.88 95.097 29.8273C93.9859 33.2486 92.7225 36.5961 90.8279 39.6748C90.7149 39.8582 90.6374 40.0763 90.5956 40.2882C90.5065 40.7449 90.2653 41.0654 89.8174 41.2657L89.8183 41.2684Z" fill="white"/>
<path d="M97.9175 69.5528C97.5747 69.4629 97.2961 69.4166 97.0388 69.3151C96.7209 69.1896 96.4262 69.008 96.1173 69.3374C96.079 69.3784 95.9232 69.3419 95.8422 69.3018C95.4843 69.1255 95.1211 68.9555 94.7881 68.7382C94.6777 68.6661 94.5771 68.4409 94.6073 68.3189C94.6706 68.0598 94.5646 67.9539 94.383 67.8106C94.0749 67.5666 93.8007 67.2799 93.4562 66.9577C92.4448 67.4892 92.427 66.3763 92.0103 65.8946C91.9257 65.7976 92.0762 65.4967 92.1394 65.1842C92.0495 64.9429 91.932 64.5654 91.7619 64.2129C91.7112 64.1069 91.5197 64.0259 91.3853 64.0144C91.1868 63.9966 90.9811 64.05 90.755 64.0758C90.625 63.5763 90.4861 63.1125 90.3944 62.6397C90.3704 62.5178 90.4674 62.346 90.5564 62.2364C90.665 62.1029 90.8253 62.0112 90.9633 61.9008C90.8057 61.3577 90.6526 60.8262 90.4905 60.2671C90.487 60.2653 90.4478 60.2449 90.406 60.2369C90.0944 60.179 89.6207 60.2288 89.505 60.0472C89.253 59.6519 89.1293 59.148 89.066 58.6726C89.042 58.4963 89.3136 58.2586 89.4854 58.0841C89.6946 57.8714 89.7293 57.6497 89.5949 57.4048C89.2975 56.8627 89.0447 56.2786 88.6556 55.8094C88.4597 55.5726 88.0119 55.4729 87.6674 55.4453C86.7254 55.3696 85.7772 55.3759 84.8335 55.3216C84.6795 55.3127 84.4658 55.1987 84.3955 55.0705C83.9067 54.1767 83.4473 53.2659 82.9612 52.3257C83.6512 51.9937 84.383 51.9394 85.1104 51.8699C85.2431 51.8575 85.3784 51.8797 85.5101 51.8664C86.2001 51.796 86.8421 51.8904 87.4742 52.2243C88.6636 52.8528 89.8825 53.427 91.0906 54.0191C92.7172 54.8159 93.49 56.2395 93.9049 57.9043C94.1791 59.0065 94.3358 60.1398 94.6519 61.2277C94.9466 62.2418 95.2822 63.2692 95.7808 64.1933C96.639 65.7834 98.0733 66.6834 99.8415 66.9879C100.588 67.1161 101.362 67.0921 102.122 67.1375C102.163 66.2481 102.989 66.4333 103.323 66.0006C103.48 66.1413 103.599 66.249 103.744 66.3781C104.071 66.1235 104.393 65.8742 104.738 65.6062C104.218 64.9963 104.786 64.6144 105.042 64.2111C105.125 64.0793 105.524 64.1479 105.85 64.1185C105.952 63.8105 106.083 63.4107 106.212 63.0244C106.012 62.9059 105.711 62.8276 105.682 62.6914C105.61 62.3522 105.642 61.9845 105.677 61.6328C105.686 61.542 105.869 61.4735 105.964 61.3862C106.063 61.2963 106.242 61.1859 106.232 61.1031C106.194 60.7871 106.099 60.4763 106.005 60.1701C105.996 60.1407 105.829 60.122 105.76 60.1541C105.136 60.439 105.076 59.8238 104.806 59.5576C104.541 59.2958 104.842 59.108 104.93 58.8952C104.957 58.8284 105.004 58.7697 105.044 58.7038C104.745 58.4207 104.457 58.1465 104.147 57.8536C104.024 57.9915 103.87 58.1643 103.705 58.3503C103.225 58.0352 102.346 58.1509 102.706 57.1155C102.303 57.1155 101.959 57.0656 101.637 57.1324C101.403 57.1805 101.213 57.4066 100.983 57.509C100.565 57.696 100.141 57.8197 99.9848 57.2001C98.8897 57.5829 98.8532 57.6212 98.9948 58.3058C98.6244 58.4581 98.2211 58.5952 97.8463 58.7884C97.6175 58.9068 97.4341 59.1115 97.2676 59.2477C97.0895 58.6726 97.1661 58.2942 97.6923 57.8998C98.733 57.1191 99.7507 56.2884 100.87 55.6385C101.522 55.2592 102.349 55.1684 103.108 54.9904C103.551 54.8862 104.013 54.8168 104.464 54.8239C104.816 54.8292 105.19 54.9236 105.511 55.0732C106.43 55.5005 107.321 55.9875 108.235 56.4264C108.582 56.5929 108.787 56.8288 108.786 57.2063C108.783 58.7332 108.786 60.2609 108.741 61.7869C108.731 62.1252 108.532 62.4572 108.421 62.7929C108.035 63.9538 107.666 65.1201 107.259 66.273C107.033 66.914 106.577 67.3102 105.917 67.5782C104.33 68.2219 102.784 68.9617 101.211 69.6383C100.91 69.7674 100.562 69.8164 100.231 69.8404C99.6118 69.8849 98.9895 69.8778 98.3689 69.9072C98.0822 69.9205 97.8525 69.9001 97.9193 69.5528H97.9175Z" fill="white"/>
<path d="M47.9132 60.1345C47.8687 60.3633 47.8554 60.5583 47.7913 60.7346C47.6648 61.0853 47.7218 61.3141 48.1046 61.453C48.2115 61.4913 48.3112 61.6854 48.3245 61.818C48.3566 62.1252 48.3352 62.4386 48.3352 62.7778C48.15 62.8383 47.9729 62.8962 47.7521 62.9683C47.8785 63.3778 48.0023 63.7785 48.1314 64.1996C48.475 64.2022 48.8952 63.8372 49.0929 64.415C49.222 64.7925 49.7606 65.1068 49.1935 65.576C49.5567 65.8564 49.8924 66.1155 50.2325 66.3781C50.3553 66.2633 50.4631 66.1627 50.618 66.0184C51.0088 66.3745 51.7514 66.2909 51.8573 67.0521C54.7722 67.4197 57.8099 66.225 58.9157 62.5873C59.3261 61.2358 59.5701 59.8354 59.9137 58.4625C60.1577 57.4895 60.4248 56.5235 60.9946 55.6706C61.5385 54.8551 62.2811 54.2924 63.1473 53.8713C64.4356 53.2454 65.7239 52.6196 67.0122 51.9955C67.1181 51.9438 67.2285 51.8682 67.338 51.8655C68.5631 51.837 69.7873 51.8281 71.015 52.3071C70.5031 53.2935 70.009 54.2613 69.4899 55.2157C69.4436 55.3011 69.2326 55.3207 69.0955 55.3287C68.02 55.391 66.941 55.4142 65.8708 55.5201C65.6126 55.5459 65.3135 55.789 65.1514 56.016C64.8452 56.4451 64.6164 56.9312 64.3697 57.4013C64.2326 57.6631 64.2576 57.9132 64.5086 58.1109C64.9191 58.4332 64.9894 58.8204 64.7383 59.2772C64.6902 59.3653 64.66 59.4721 64.652 59.5727C64.6083 60.1016 64.2798 60.2529 63.8106 60.2182C63.5275 60.1977 63.3815 60.2698 63.3637 60.6028C63.3485 60.8895 63.256 61.1886 63.1286 61.4495C62.9639 61.786 63.0316 62.0157 63.3414 62.1813C63.5925 62.3157 63.661 62.4964 63.556 62.7537C63.54 62.7938 63.5346 62.8392 63.5239 62.8819C63.4394 63.2256 63.4527 63.6636 63.2408 63.8826C63.0565 64.0731 62.6158 64.0153 62.2828 64.0687C62.1448 64.3963 61.9899 64.7444 61.8546 65.0996C61.819 65.1931 61.8012 65.3569 61.8537 65.4077C62.127 65.6739 62.0006 65.8956 61.8279 66.1404C61.6071 66.452 61.4032 66.7761 61.186 67.1028C60.9403 67.0423 60.7132 66.9862 60.5476 66.9452C60.179 67.2728 59.8372 67.5693 59.506 67.8765C59.4383 67.9388 59.3519 68.0563 59.3697 68.1231C59.4971 68.602 59.2015 68.7694 58.8409 68.9288C58.5311 69.065 58.2399 69.2422 57.9274 69.4087C57.2722 68.7089 56.7237 69.698 56.0649 69.4558C56.0676 69.9366 55.8174 69.9063 55.4809 69.8769C54.8915 69.8244 54.295 69.8734 53.7029 69.8413C53.4011 69.8253 53.0833 69.7737 52.809 69.6562C51.154 68.9457 49.5211 68.1783 47.8536 67.4981C47.0968 67.1892 46.795 66.5784 46.5555 65.9187C46.1931 64.9225 45.9813 63.8666 45.5619 62.898C45.0963 61.8216 45.2681 60.7176 45.2004 59.6235C45.1515 58.84 45.1933 58.0512 45.1907 57.2651C45.1898 56.8057 45.4159 56.5796 45.8459 56.3926C46.7086 56.0187 47.5464 55.5771 48.3611 55.107C48.727 54.896 49.076 54.7607 49.4873 54.8115C50.058 54.8809 50.6251 54.9735 51.1958 55.0412C52.9791 55.2539 54.2941 56.3579 55.6589 57.3684C55.7542 57.4387 55.845 57.5153 55.942 57.582C56.5457 57.9987 56.9303 58.5106 56.6703 59.2985C56.673 59.2985 56.6276 59.3092 56.6222 59.3003C56.3738 58.8089 55.8263 58.7786 55.4203 58.5347C55.0865 58.3334 54.8933 58.1198 55.0758 57.7067C54.7303 57.5322 54.4036 57.3675 54.0831 57.2054C53.475 57.7654 53.1919 57.7129 52.4031 57.177C52.1538 57.0078 51.7157 57.1173 51.2786 57.0951C51.5475 57.9115 50.9928 58.1189 50.4373 58.2337C50.2521 58.272 50.009 58.0299 49.6769 57.8554C49.5158 58.0343 49.2612 58.2791 49.0591 58.5614C48.9958 58.6495 49.0243 58.8703 49.0947 58.9736C49.2638 59.222 49.3306 59.4321 49.0884 59.6671C48.84 59.9084 48.7519 60.423 48.2141 60.1568C48.1411 60.1211 48.0405 60.1416 47.9123 60.1345H47.9132Z" fill="white"/>
</svg>
