<svg width="59" height="39" viewBox="0 0 59 39" fill="none" xmlns="http://www.w3.org/2000/svg">
<rect x="1" y="1" width="56.76" height="36.1558" rx="5" fill="#F5D9B6" stroke="#B9A083" stroke-width="2"/>
<path d="M5.92266 11H9.06266L10.4627 21.02H10.5027L11.9027 11H15.0427V25H12.9627V14.4H12.9227L11.3227 25H9.48266L7.88266 14.4H7.84266V25H5.92266V11ZM18.3844 11H21.3644L23.6444 25H21.4444L21.0444 22.22V22.26H18.5444L18.1444 25H16.1044L18.3844 11ZM20.7844 20.36L19.8044 13.44H19.7644L18.8044 20.36H20.7844ZM24.7117 11H27.9717C29.1051 11 29.9317 11.2667 30.4517 11.8C30.9717 12.32 31.2317 13.1267 31.2317 14.22V15.08C31.2317 16.5333 30.7517 17.4533 29.7917 17.84V17.88C30.3251 18.04 30.6984 18.3667 30.9117 18.86C31.1384 19.3533 31.2517 20.0133 31.2517 20.84V23.3C31.2517 23.7 31.2651 24.0267 31.2917 24.28C31.3184 24.52 31.3851 24.76 31.4917 25H29.2517C29.1717 24.7733 29.1184 24.56 29.0917 24.36C29.0651 24.16 29.0517 23.8 29.0517 23.28V20.72C29.0517 20.08 28.9451 19.6333 28.7317 19.38C28.5317 19.1267 28.1784 19 27.6717 19H26.9117V25H24.7117V11ZM27.7117 17C28.1517 17 28.4784 16.8867 28.6917 16.66C28.9184 16.4333 29.0317 16.0533 29.0317 15.52V14.44C29.0317 13.9333 28.9384 13.5667 28.7517 13.34C28.5784 13.1133 28.2984 13 27.9117 13H26.9117V17H27.7117ZM32.12 11H34.34L35.78 21.86H35.82L37.26 11H39.28L37.16 25H34.24L32.12 11ZM40.3367 11H46.3367V13H42.5367V16.7H45.5567V18.7H42.5367V23H46.3367V25H40.3367V11ZM47.6023 11H49.8023V23H53.4223V25H47.6023V11Z" fill="black"/>
</svg>
