<svg width="59" height="39" viewBox="0 0 59 39" fill="none" xmlns="http://www.w3.org/2000/svg">
<rect x="57.76" y="37.1558" width="56.76" height="36.1558" rx="5" transform="rotate(-180 57.76 37.1558)" fill="#F5D9B6" stroke="#B9A083" stroke-width="2"/>
<path d="M52.8374 27.1558H49.6974L48.2974 17.1358H48.2574L46.8574 27.1558H43.7174V13.1558H45.7974V23.7558H45.8374L47.4374 13.1558H49.2774L50.8774 23.7558H50.9174V13.1558H52.8374V27.1558ZM40.3756 27.1558H37.3956L35.1156 13.1558H37.3156L37.7156 15.9358V15.8958H40.2156L40.6156 13.1558H42.6556L40.3756 27.1558ZM37.9756 17.7958L38.9556 24.7158H38.9956L39.9556 17.7958H37.9756ZM34.0483 27.1558H30.7883C29.655 27.1558 28.8283 26.8892 28.3083 26.3558C27.7883 25.8358 27.5283 25.0292 27.5283 23.9358V23.0758C27.5283 21.6225 28.0083 20.7025 28.9683 20.3158V20.2758C28.435 20.1158 28.0616 19.7892 27.8483 19.2958C27.6216 18.8025 27.5083 18.1425 27.5083 17.3158V14.8558C27.5083 14.4558 27.495 14.1292 27.4683 13.8758C27.4416 13.6358 27.375 13.3958 27.2683 13.1558H29.5083C29.5883 13.3825 29.6416 13.5958 29.6683 13.7958C29.695 13.9958 29.7083 14.3558 29.7083 14.8758V17.4358C29.7083 18.0758 29.815 18.5225 30.0283 18.7758C30.2283 19.0292 30.5816 19.1558 31.0883 19.1558H31.8483V13.1558H34.0483V27.1558ZM31.0483 21.1558C30.6083 21.1558 30.2816 21.2692 30.0683 21.4958C29.8416 21.7225 29.7283 22.1025 29.7283 22.6358V23.7158C29.7283 24.2225 29.8216 24.5892 30.0083 24.8158C30.1816 25.0425 30.4616 25.1558 30.8483 25.1558H31.8483L31.8483 21.1558H31.0483ZM26.64 27.1558H24.42L22.98 16.2958H22.94L21.5 27.1558H19.48L21.6 13.1558H24.52L26.64 27.1558ZM18.4233 27.1558H12.4233V25.1558H16.2233V21.4558H13.2033V19.4558H16.2233V15.1558H12.4233V13.1558H18.4233V27.1558ZM11.1577 27.1558H8.95767V15.1558H5.33767V13.1558L11.1577 13.1558V27.1558Z" fill="black"/>
</svg>
