<svg width="154" height="100" viewBox="0 0 154 100" fill="none" xmlns="http://www.w3.org/2000/svg">
<rect width="154" height="100" rx="6" fill="#4266B0"/>
<path d="M38 50.4739C38.1568 39.5958 41.9353 30.1916 49.6248 22.461C55.6356 16.4169 62.9242 12.7775 71.3524 11.4546C85.7856 9.19001 100.653 15.5183 109.072 27.49C114.132 34.6845 116.606 42.6836 116.392 51.4646C115.936 70.2633 102.524 85.7244 84.7959 89.2031C64.201 93.2443 44.1882 80.4192 39.1651 60.0349C38.3782 56.8424 38.0196 53.8507 38 50.4739ZM39.2817 50.373C39.2621 53.6733 39.6757 56.9218 40.5135 60.1104C45.2034 77.9684 61.7218 89.7911 80.1217 88.4594C85.3045 88.0841 90.2002 86.6701 94.7872 84.232C109.507 76.4084 117.429 60.1672 114.559 43.7389C111.608 26.8569 97.82 14.0475 80.7969 12.3865C75.3544 11.8554 70.0364 12.4737 64.8752 14.2787C49.4905 19.6624 39.2837 34.074 39.2817 50.373Z" fill="white"/>
<path d="M40.5478 50.3054C40.5488 33.5292 51.806 18.8403 67.9022 14.609C86.1012 9.82601 105.01 19.681 111.541 37.3548C116.6 51.0452 113.339 66.2006 103.028 76.5191C97.4114 82.1409 90.6411 85.5892 82.7704 86.8014C63.8492 89.7137 45.8776 77.5236 41.5257 58.8473C40.8712 56.0369 40.536 53.1922 40.5478 50.3064V50.3054ZM77.2261 16.6217C58.8693 16.6198 43.9177 31.4773 43.7335 49.9742C43.5473 68.7141 58.491 83.9312 76.9674 84.0126C95.6583 84.0949 110.59 69.1276 110.69 50.3544C110.788 31.8359 95.6965 16.6237 77.2251 16.6207L77.2261 16.6217Z" fill="white"/>
<path d="M51.4396 34.0064C52.7634 31.9211 54.198 29.9731 56.0266 28.2749C60.7723 32.0231 65.4935 35.7507 70.2638 39.5175C70.3774 39.2735 70.4686 39.0883 70.5519 38.8991C71.7248 36.2602 72.8958 33.6203 74.0698 30.9814C74.156 30.7874 74.2589 30.6012 74.351 30.4101C75.0977 28.8677 76.351 28.0867 78.0384 27.9848C79.915 27.8712 81.7533 28.1014 83.5495 28.6521C84.3324 28.8922 84.6343 29.3234 84.6558 30.1965C84.0091 30.1965 83.3515 30.1201 82.7175 30.2112C81.3555 30.4062 80.7459 31.3401 81.0958 32.6806C81.2545 33.2891 81.5446 33.8663 81.8003 34.4464C82.4569 35.9359 83.1281 37.4195 83.7905 38.906C83.8689 39.0824 83.9317 39.2666 84.0287 39.5155C88.842 35.7752 93.6181 32.0642 98.4511 28.3092C99.236 29.1823 100.023 30.0084 100.752 30.8824C101.452 31.7212 102.084 32.6159 102.761 33.4733C103.03 33.8143 102.995 34.0525 102.699 34.3837C99.6672 37.7605 96.6539 41.1539 93.6348 44.5435C88.2923 50.5405 82.9498 56.5386 77.6073 62.5357C77.4897 62.668 77.3662 62.7954 77.1977 62.9767C68.6018 53.3088 60.0285 43.6664 51.4396 34.0054V34.0064Z" fill="white"/>
<path d="M59.2397 75.3931C63.2534 69.5724 67.224 63.8135 71.2446 57.9839C73.2447 60.2299 75.2025 62.4288 77.2055 64.6797C79.2074 62.4504 81.1849 60.2476 83.2182 57.9839C87.23 63.7664 91.2055 69.497 95.2222 75.2873C89.9718 79.0326 84.156 80.914 77.7807 80.9679C71.0614 81.0237 64.8713 79.2089 59.2397 75.3931Z" fill="white"/>
<path d="M55.0241 71.7097C53.9031 70.2486 52.786 68.8679 51.757 67.4255C51.0956 66.4995 50.5664 65.4794 49.9707 64.5053C49.8374 64.2868 49.807 64.1212 50.0069 63.9046C54.2186 59.3314 58.4224 54.7512 62.6282 50.1731C62.639 50.1613 62.6567 50.1564 62.7066 50.129C62.7752 50.1907 62.8644 50.2524 62.931 50.3318C64.4323 52.1182 65.9286 53.9085 67.4328 55.692C67.6072 55.8987 67.7003 56.0398 67.4837 56.3083C63.421 61.3333 59.371 66.3681 55.3171 71.4C55.2671 71.4627 55.2063 71.5176 55.0241 71.7097Z" fill="white"/>
<path d="M99.333 71.6352C95.1487 66.4407 90.9851 61.2706 86.7861 56.0585C88.4461 54.0771 90.0953 52.1084 91.7749 50.1045C92.8107 51.2324 93.8141 52.324 94.8166 53.4156C97.9944 56.8777 101.169 60.3417 104.356 63.7959C104.612 64.0732 104.679 64.2741 104.48 64.6347C103.199 66.9414 101.708 69.0953 99.9484 71.061C99.8073 71.2188 99.6583 71.3706 99.5094 71.5216C99.477 71.5549 99.43 71.5735 99.333 71.6352Z" fill="white"/>
<path d="M49.4101 63.3589C49.3053 63.156 49.2279 63.0188 49.1612 62.8767C47.6884 59.74 46.8163 56.4504 46.684 52.9796C46.6762 52.7689 46.7692 52.4828 46.9192 52.3485C50.2352 49.3999 53.5659 46.4671 56.8937 43.5322C56.9418 43.4901 56.9976 43.4558 57.1054 43.3784C58.7801 45.3754 60.4518 47.3676 62.1559 49.3999C57.9129 54.0467 53.6845 58.6778 49.4101 63.3589Z" fill="white"/>
<path d="M92.3364 49.4352C94.0355 47.4078 95.6985 45.4244 97.3986 43.395C98.1629 44.0663 98.8959 44.7061 99.625 45.35C102.231 47.6488 104.83 49.9536 107.446 52.2417C107.736 52.4955 107.829 52.7483 107.812 53.1256C107.654 56.718 106.692 60.0938 105.097 63.4088C100.83 58.7366 96.6049 54.1104 92.3364 49.4352Z" fill="white"/>
<path d="M107.788 51.5685C104.519 48.5925 101.284 45.6478 98.0101 42.6679C99.9974 40.2965 101.953 37.9623 103.91 35.6262C105.909 37.54 108.51 48.1692 107.787 51.5685H107.788Z" fill="white"/>
<path d="M46.6428 51.591C46.5252 45.8134 47.7727 40.5238 50.5282 35.5302C52.5174 37.9025 54.4832 40.2475 56.4822 42.6316C53.22 45.6017 49.9834 48.5493 46.6428 51.591Z" fill="white"/>
</svg>
