<svg width="154" height="100" viewBox="0 0 154 100" fill="none" xmlns="http://www.w3.org/2000/svg">
<rect width="154" height="100" rx="6" fill="#4266B0"/>
<path d="M116.405 50.4723C116.248 61.3504 112.47 70.7546 104.78 78.4852C98.7695 84.5293 91.4809 88.1687 83.0526 89.4916C68.6195 91.7562 53.7522 85.4279 45.3327 73.4562C40.2734 66.2617 37.7991 58.2626 38.0127 49.4816C38.4694 30.6829 51.8815 15.2218 69.6092 11.743C90.2041 7.70187 110.217 20.527 115.24 40.9113C116.027 44.1038 116.385 47.0955 116.405 50.4723ZM115.123 50.5732C115.143 47.2729 114.729 44.0244 113.892 40.8358C109.202 22.9778 92.6833 11.1551 74.2834 12.4868C69.1006 12.8621 64.2049 14.2761 59.6179 16.7142C44.8976 24.5378 36.976 40.779 39.8462 57.2073C42.7967 74.0893 56.5851 86.8987 73.6082 88.5597C79.0507 89.0908 84.3687 88.4725 89.5299 86.6675C104.915 81.2838 115.121 66.8722 115.123 50.5732Z" fill="white"/>
<path d="M113.857 50.6408C113.856 67.417 102.599 82.1059 86.5029 86.3372C68.3039 91.1202 49.3955 81.2652 42.8643 63.5914C37.805 49.901 41.0662 34.7456 51.3769 24.4271C56.9937 18.8053 63.764 15.3569 71.6347 14.1448C90.5559 11.2325 108.528 23.4226 112.879 42.0989C113.534 44.9093 113.869 47.754 113.857 50.6398V50.6408ZM77.179 84.3245C95.5358 84.3264 110.487 69.4689 110.672 50.972C110.858 32.2321 95.9141 17.015 77.4377 16.9336C58.7468 16.8513 43.8148 31.8186 43.7149 50.5918C43.6169 69.1103 58.7086 84.3225 77.18 84.3254L77.179 84.3245Z" fill="white"/>
<path d="M102.966 66.9398C101.642 69.0251 100.207 70.9732 98.3785 72.6713C93.6328 68.9232 88.9116 65.1956 84.1413 61.4288C84.0277 61.6728 83.9365 61.858 83.8532 62.0471C82.6803 64.686 81.5093 67.3259 80.3353 69.9648C80.2491 70.1588 80.1462 70.345 80.0541 70.5361C79.3074 72.0785 78.0541 72.8595 76.3667 72.9614C74.4901 73.0751 72.6518 72.8448 70.8556 72.2941C70.0727 72.054 69.7709 71.6228 69.7493 70.7497C70.396 70.7497 71.0536 70.8262 71.6876 70.735C73.0497 70.54 73.6592 69.6062 73.3093 68.2656C73.1506 67.6571 72.8605 67.0799 72.6048 66.4998C71.9482 65.0104 71.277 63.5268 70.6146 62.0402C70.5362 61.8638 70.4735 61.6796 70.3764 61.4307C65.5631 65.1711 60.787 68.882 55.954 72.6371C55.1691 71.7639 54.3822 70.9379 53.6532 70.0638C52.9535 69.225 52.3215 68.3303 51.6444 67.4729C51.3749 67.1319 51.4102 66.8938 51.7061 66.5625C54.738 63.1858 57.7512 59.7923 60.7703 56.4028C66.1128 50.4057 71.4553 44.4076 76.7978 38.4105C76.9154 38.2782 77.0389 38.1508 77.2074 37.9696C85.8033 47.6374 94.3766 57.2798 102.966 66.9408V66.9398Z" fill="white"/>
<path d="M95.1654 25.553C91.1517 31.3737 87.181 37.1327 83.1604 42.9622C81.1604 40.7163 79.2026 38.5173 77.1996 36.2665C75.1976 38.4958 73.2202 40.6986 71.1868 42.9622C67.1751 37.1797 63.1995 31.4492 59.1829 25.6589C64.4332 21.9136 70.2491 20.0322 76.6244 19.9783C83.3437 19.9224 89.5338 21.7372 95.1654 25.553Z" fill="white"/>
<path d="M99.381 29.2365C100.502 30.6976 101.619 32.0783 102.648 33.5207C103.309 34.4467 103.839 35.4668 104.434 36.4408C104.568 36.6594 104.598 36.825 104.398 37.0415C100.186 41.6148 95.9826 46.1949 91.7768 50.7731C91.7661 50.7849 91.7484 50.7898 91.6984 50.8172C91.6299 50.7555 91.5407 50.6937 91.474 50.6144C89.9728 48.828 88.4765 47.0377 86.9723 45.2542C86.7979 45.0475 86.7048 44.9063 86.9214 44.6378C90.9841 39.6128 95.0341 34.578 99.088 29.5462C99.138 29.4834 99.1987 29.4286 99.381 29.2365Z" fill="white"/>
<path d="M55.0721 29.311C59.2564 34.5055 63.42 39.6756 67.619 44.8878C65.959 46.8692 64.3098 48.8378 62.6302 50.8417C61.5944 49.7139 60.591 48.6222 59.5886 47.5306C56.4107 44.0686 53.2358 40.6045 50.0491 37.1503C49.7933 36.873 49.7257 36.6721 49.9256 36.3115C51.2063 34.0048 52.6968 31.851 54.4567 29.8852C54.5978 29.7275 54.7468 29.5756 54.8957 29.4247C54.9281 29.3914 54.9751 29.3727 55.0721 29.311Z" fill="white"/>
<path d="M104.995 37.5873C105.1 37.7902 105.177 37.9274 105.244 38.0695C106.717 41.2062 107.589 44.4958 107.721 47.9666C107.729 48.1773 107.636 48.4634 107.486 48.5977C104.17 51.5463 100.839 54.4791 97.5113 57.414C97.4633 57.4561 97.4074 57.4904 97.2997 57.5678C95.625 55.5708 93.9532 53.5786 92.2492 51.5463C96.4922 46.8995 100.721 42.2684 104.995 37.5873Z" fill="white"/>
<path d="M62.0687 51.511C60.3695 53.5384 58.7066 55.5218 57.0065 57.5512C56.2421 56.88 55.5091 56.2401 54.7801 55.5963C52.1745 53.2974 49.5748 50.9926 46.9594 48.7045C46.6693 48.4507 46.5762 48.1979 46.5929 47.8206C46.7506 44.2283 47.7129 40.8524 49.3082 37.5374C53.5748 42.2096 57.8002 46.8358 62.0687 51.511Z" fill="white"/>
<path d="M46.6174 49.3777C49.8864 52.3537 53.1211 55.2984 56.395 58.2783C54.4077 60.6497 52.4518 62.9839 50.4949 65.32C48.4959 63.4062 45.8952 52.777 46.6184 49.3777H46.6174Z" fill="white"/>
<path d="M107.762 49.3552C107.88 55.1328 106.632 60.4224 103.877 65.416C101.888 63.0436 99.9219 60.6987 97.9229 58.3146C101.185 55.3444 104.422 52.3968 107.762 49.3552Z" fill="white"/>
</svg>
